<?xml version="1.0" encoding="UTF-8"?>
<svg width="546px" height="91px" viewBox="0 0 546 91" version="1.1" xmlns="http://www.w3.org/2000/svg" xmlns:xlink="http://www.w3.org/1999/xlink">
    <title>编组 10</title>
    <defs>
        <linearGradient x1="50%" y1="29.8966601%" x2="50%" y2="100%" id="linearGradient-1">
            <stop stop-color="#FFFFFF" offset="0%"></stop>
            <stop stop-color="#D3DCEE" offset="100%"></stop>
        </linearGradient>
        <path d="M48.488,30.276 L53.07,24.186 C44.486,18.212 39.44,11.542 35.264,0.464 L28.884,3.132 C33.698,14.384 38.744,23.664 48.488,30.276 Z M5.278,30.74 C13.572,22.562 19.952,13.514 24.186,3.596 L17.284,1.218 C13.746,10.034 7.714,18.212 1.70530257e-13,25.172 L5.278,30.74 Z M41.412,52.78 L47.444,48.314 C44.486,42.746 39.498,34.568 35.148,28.826 L29.232,32.422 C31.03,34.916 33.002,38.048 35.032,41.296 C33.8604,41.4004 32.67024,41.50248 31.477296,41.601312 L29.687764,41.747008 C25.51652,42.08074 21.4078,42.369 18.038,42.572 C21.286,38.686 26.39,29.87 30.102,21.808 L23.142,19.024 C19.14,27.666 13.688,36.888 10.382,40.658 C9.048,42.108 7.946,42.63 6.322,43.036 L8.526,50.634 C9.628,50.402 10.904,50.228 12.296,50.054 C19.894,49.3 30.972,48.604 38.744,47.85 C39.73,49.648 40.658,51.214 41.412,52.78 Z M65.134,53.998 C73.718,46.168 76.85,41.006 77.604,30.276 L90.48,30.276 L90.48,51.852 L97.788,51.852 L97.788,30.276 L109.272,30.276 L109.272,23.142 L97.788,23.142 L97.788,10.092 L106.082,10.092 L106.082,3.016 L61.248,3.016 L61.248,10.092 L70.528,10.092 L70.528,23.142 L58.174,23.142 L58.174,30.276 L70.296,30.276 C69.658,38.106 67.28,42.224 59.45,48.546 L65.134,53.998 Z M90.48,23.142 L77.836,23.142 L77.836,10.092 L90.48,10.092 L90.48,23.142 Z M192.444,30.276 L197.026,24.186 C188.442,18.212 183.396,11.542 179.22,0.464 L172.84,3.132 C177.654,14.384 182.7,23.664 192.444,30.276 Z M149.234,30.74 C157.528,22.562 163.908,13.514 168.142,3.596 L161.24,1.218 C157.702,10.034 151.67,18.212 143.956,25.172 L149.234,30.74 Z M185.368,52.78 L191.4,48.314 C188.442,42.746 183.454,34.568 179.104,28.826 L173.188,32.422 C174.986,34.916 176.958,38.048 178.988,41.296 C177.8164,41.4004 176.62624,41.50248 175.433296,41.601312 L173.643764,41.747008 C169.47252,42.08074 165.3638,42.369 161.994,42.572 C165.242,38.686 170.346,29.87 174.058,21.808 L167.098,19.024 C163.096,27.666 157.644,36.888 154.338,40.658 C153.004,42.108 151.902,42.63 150.278,43.036 L152.482,50.634 C153.584,50.402 154.86,50.228 156.252,50.054 C163.85,49.3 174.928,48.604 182.7,47.85 C183.686,49.648 184.614,51.214 185.368,52.78 Z M231.42,51.678 L231.42,35.264 L252.996,35.264 L252.996,27.956 L231.42,27.956 L231.42,9.164 L249.864,9.164 L249.864,1.972 L205.61,1.972 L205.61,9.164 L224.054,9.164 L224.054,27.956 L202.362,27.956 L202.362,35.264 L224.054,35.264 L224.054,51.678 L231.42,51.678 Z M239.888,27.434 C242.614,24.244 247.022,17.458 248.82,13.804 L243.02,10.092 C240.99,14.152 236.64,20.764 234.146,23.722 L239.888,27.434 Z M215.47,27.434 L221.154,23.142 C219.298,19.778 215.122,13.804 212.106,10.324 L206.596,14.384 C209.554,17.98 213.614,24.07 215.47,27.434 Z M336.4,30.276 L340.982,24.186 C332.398,18.212 327.352,11.542 323.176,0.464 L316.796,3.132 C321.61,14.384 326.656,23.664 336.4,30.276 Z M293.19,30.74 C301.484,22.562 307.864,13.514 312.098,3.596 L305.196,1.218 C301.658,10.034 295.626,18.212 287.912,25.172 L293.19,30.74 Z M329.324,52.78 L335.356,48.314 C332.398,42.746 327.41,34.568 323.06,28.826 L317.144,32.422 C318.942,34.916 320.914,38.048 322.944,41.296 C321.7724,41.4004 320.58224,41.50248 319.389296,41.601312 L317.599764,41.747008 C313.42852,42.08074 309.3198,42.369 305.95,42.572 C309.198,38.686 314.302,29.87 318.014,21.808 L311.054,19.024 C307.052,27.666 301.6,36.888 298.294,40.658 C296.96,42.108 295.858,42.63 294.234,43.036 L296.438,50.634 C297.54,50.402 298.816,50.228 300.208,50.054 C307.806,49.3 318.884,48.604 326.656,47.85 C327.642,49.648 328.57,51.214 329.324,52.78 Z M397.184,50.228 L397.184,42.572 L377.406,42.572 L377.406,29.464 L392.834,29.464 L392.834,21.808 L377.406,21.808 L377.406,11.194 L394.168,11.194 L394.168,3.538 L350.088,3.538 L350.088,11.194 L369.924,11.194 L369.924,42.572 L361.862,42.572 L361.862,17.11 L354.438,16.82 L354.438,42.572 L346.434,42.572 L346.434,50.228 L397.184,50.228 Z M449.79,52.606 C451.878,48.43 453.386,45.008 454.314,41.122 L456.402,46.864 L459.302,46.516 C460.840261,46.3394783 461.961887,45.9217467 462.75745,45.1197955 L462.816,45.058 L462.500156,45.4221563 C461.75975,46.265875 460.984,47.1105 460.172,47.966 L464.87,52.374 C467.016,49.996 468.988,47.618 470.67,45.182 C473.164,50.518 475.658,52.374 477.978,52.374 C480.82,52.374 483.256,51.272 484.474,45.994 C484.88,44.428 485.344,42.05 485.518,39.962 L480.124,37.816 C479.95,39.846 479.776,40.948 479.602,41.818 C479.138,43.906 478.79,44.486 478.152,44.486 C477.63,44.486 476.934,44.022 476.064,42.224 C475.542,41.122 475.078,39.904 474.672,38.57 C477.398,33.234 479.602,27.26 481.69,19.546 L475.89,17.806 C474.904,21.808 473.802,25.404 472.468,28.826 C471.83,24.882 471.482,20.358 471.076,14.848 L482.27,14.848 L482.27,8.062 L478.848,8.062 L481.052,5.974 C479.138,3.712 477.282,1.914 475.658,0.29 L471.714,3.828 C473.048,5.162 474.15,6.438 475.6,8.062 L470.612,8.062 C470.450429,4.61514286 470.388878,2.11847959 470.380909,0.897076531 L470.38,0.638 L470.38,0.638 L464.058,0.406 C464.232,1.624 464.174,4.64 464.348,8.062 L449.152,8.062 L449.152,23.78 C449.152,30.682 448.804,35.032 448.05,38.686 L446.252,33.93 C445.498,34.684 444.628,35.786 443.932,36.656 L443.932,17.052 L432.97,17.052 L432.97,24.07 L437.204,24.07 L437.204,40.02 C437.204,41.47 437.03,42.282 436.16,43.384 L440.336,48.836 C440.8,48.314 441.438,47.676 442.076,47.038 C443.468,45.704 445.382,43.906 446.948,42.34 C446.078,44.602 444.976,46.748 443.41,49.358 L449.79,52.606 Z M442.888,15.138 L447.76,9.86 C445.904,7.54 442.424,3.132 440.278,0.986 L435.174,5.51 C437.378,7.714 441.148,12.644 442.888,15.138 Z M464.406,39.73 C464.406,37.294 464.754,22.388 464.986,20.416 L455.764,20.416 L455.764,14.848 L464.87,14.848 C465.682,24.36 466.784,31.958 468.234,37.584 C466.758625,40.136 465.036523,42.4686875 463.048848,44.7893813 L463.09375,44.7325 C463.8985,43.674 464.29,42.079 464.406,39.73 Z M454.43,40.6 C455.3,36.83 455.706,32.654 455.764,27.318 L459.012,27.318 C459.012,28.536 458.664,35.148 458.664,36.54 C458.49,39.324 458.316,39.904 456.576,40.252 L454.43,40.6 Z M503.208,52.142 L503.208,13.688 C504.426,10.962 505.354,8.41 506.224,6.09 L506.224,12.064 L540.85,12.064 L540.85,5.336 L527.046,5.336 L526.06,0.522 L518.636,0.87 L519.68,5.336 L506.456,5.336 C506.862,4.176 507.21,3.074 507.5,2.03 L501.12,2.55795385e-13 C498.8,7.598 495.146,17.11 488.476,25.926 L493.464,31.262 C494.45,29.812 495.378,28.362 496.248,26.97 L496.248,52.142 L503.208,52.142 Z M537.718,20.996 L537.718,14.848 L508.834,14.848 L508.834,20.996 L537.718,20.996 Z M537.718,29.696 L537.718,23.548 L508.834,23.548 L508.834,29.696 L537.718,29.696 Z M537.776,51.098 L537.776,32.538 L508.892,32.538 L508.892,51.098 L537.776,51.098 Z M530.468,44.37 L516.142,44.37 L516.142,39.034 L530.468,39.034 L530.468,44.37 Z" id="path-2"></path>
        <filter x="-0.7%" y="-3.7%" width="101.5%" height="114.8%" filterUnits="objectBoundingBox" id="filter-3">
            <feOffset dx="0" dy="2" in="SourceAlpha" result="shadowOffsetOuter1"></feOffset>
            <feGaussianBlur stdDeviation="1" in="shadowOffsetOuter1" result="shadowBlurOuter1"></feGaussianBlur>
            <feColorMatrix values="0 0 0 0 0.133913097   0 0 0 0 0.250088   0 0 0 0 0.560796323  0 0 0 0.5 0" type="matrix" in="shadowBlurOuter1"></feColorMatrix>
        </filter>
        <linearGradient x1="50%" y1="0%" x2="50%" y2="100%" id="linearGradient-4">
            <stop stop-color="#FFFFFF" offset="0%"></stop>
            <stop stop-color="#D4DCEF" offset="100%"></stop>
        </linearGradient>
        <linearGradient x1="50%" y1="0%" x2="50%" y2="100%" id="linearGradient-5">
            <stop stop-color="#FFFFFF" offset="0%"></stop>
            <stop stop-color="#D4DCEF" offset="100%"></stop>
        </linearGradient>
        <linearGradient x1="50%" y1="0%" x2="50%" y2="100%" id="linearGradient-6">
            <stop stop-color="#FFFFFF" offset="0%"></stop>
            <stop stop-color="#D4DCEF" offset="100%"></stop>
        </linearGradient>
        <linearGradient x1="50%" y1="0%" x2="50%" y2="100%" id="linearGradient-7">
            <stop stop-color="#FFFFFF" offset="0%"></stop>
            <stop stop-color="#D4DCEF" offset="100%"></stop>
        </linearGradient>
    </defs>
    <g id="2.0" stroke="none" stroke-width="1" fill="none" fill-rule="evenodd">
        <g id="采购首页/tab选中/更正公告" transform="translate(-273.000000, -181.000000)" fill-rule="nonzero">
            <g id="banner" transform="translate(0.000000, 121.000000)">
                <g id="编组-10" transform="translate(275.798000, 60.310000)">
                    <g id="公开公平公正诚信">
                        <use fill="black" fill-opacity="1" filter="url(#filter-3)" xlink:href="#path-2"></use>
                        <use fill="url(#linearGradient-1)" xlink:href="#path-2"></use>
                    </g>
                    <path d="M16.405125,85.9146094 C18.6121563,85.9146094 20.3439271,85.2472917 21.6004375,83.9126563 C22.8569479,82.5780208 23.4852031,80.7778906 23.4852031,78.5122656 C23.4852031,76.3052344 22.8488099,74.5360286 21.5760234,73.2046484 C20.303237,71.8732682 18.5893698,71.2075781 16.4344219,71.2075781 C14.2078594,71.2075781 12.4516745,71.8748958 11.1658672,73.2095313 C9.8800599,74.5441667 9.23715625,76.3117448 9.23715625,78.5122656 C9.23715625,80.7713802 9.87680469,82.5698828 11.1561016,83.9077734 C12.4353984,85.2456641 14.1850729,85.9146094 16.405125,85.9146094 Z M16.3465313,83.7954688 C14.8881979,83.7954688 13.7846823,83.3397396 13.0359844,82.4282813 C12.2872865,81.5168229 11.9129375,80.2114844 11.9129375,78.5122656 C11.9129375,76.8716406 12.2986797,75.5972266 13.0701641,74.6890234 C13.8416484,73.7808203 14.9467917,73.3267188 16.3855938,73.3267188 C17.811375,73.3267188 18.9018698,73.7808203 19.6570781,74.6890234 C20.4122865,75.5972266 20.7898906,76.8716406 20.7898906,78.5122656 C20.7898906,80.204974 20.4122865,81.5086849 19.6570781,82.4233984 C18.9018698,83.338112 17.7983542,83.7954688 16.3465313,83.7954688 Z M28.4656719,89.5474219 L28.4656719,84.3130469 C28.5437969,84.6385677 28.8595521,84.986875 29.4129375,85.3579688 C29.9663229,85.7290625 30.6368958,85.9146094 31.4246563,85.9146094 C32.1212708,85.9146094 32.7592917,85.7632422 33.3387188,85.4605078 C33.9181458,85.1577734 34.3934063,84.7541276 34.7645,84.2495703 C35.1355938,83.745013 35.4220521,83.1753516 35.623875,82.5405859 C35.8256979,81.9058203 35.9266094,81.2466406 35.9266094,80.5630469 C35.9266094,79.6515885 35.7557109,78.8084896 35.4139141,78.03375 C35.0721172,77.2590104 34.5643047,76.6291276 33.8904766,76.1441016 C33.2166484,75.6590755 32.4402813,75.4165625 31.561375,75.4165625 C30.7280417,75.4165625 30.0232891,75.6069922 29.4471172,75.9878516 C28.8709453,76.3687109 28.5437969,76.7414323 28.4656719,77.1060156 L28.4656719,77.1060156 L28.4656719,75.6704688 L25.8973125,75.6704688 C26.0210104,77.3371354 26.0828594,78.4601823 26.0828594,79.0396094 L26.0828594,89.5474219 L28.4656719,89.5474219 Z M30.8680156,83.9614844 C30.4253073,83.9614844 30.0363099,83.8703385 29.7010234,83.6880469 C29.365737,83.5057552 29.1004375,83.2567318 28.905125,82.9409766 C28.7098125,82.6252214 28.5649557,82.2736589 28.4705547,81.8862891 C28.3761536,81.4989193 28.3289531,81.0773698 28.3289531,80.6216406 C28.3289531,80.0096615 28.4135885,79.4676693 28.5828594,78.9956641 C28.7521302,78.5236589 29.0320781,78.1362891 29.4227031,77.8335547 C29.8133281,77.5308203 30.2918438,77.3794531 30.85825,77.3794531 C31.4311667,77.3794531 31.9145651,77.5324479 32.3084453,77.8384375 C32.7023255,78.1444271 32.983901,78.5383073 33.1531719,79.0200781 C33.3224427,79.501849 33.4070781,80.0519792 33.4070781,80.6704688 C33.4070781,81.1196875 33.3598776,81.5347266 33.2654766,81.9155859 C33.1710755,82.2964453 33.0278464,82.643125 32.8357891,82.955625 C32.6437318,83.268125 32.3800599,83.5138932 32.0447734,83.6929297 C31.709487,83.8719661 31.3172344,83.9614844 30.8680156,83.9614844 Z M43.4559063,85.9146094 C44.2371563,85.9146094 44.9484193,85.8120703 45.5896953,85.6069922 C46.2309714,85.4019141 46.8673646,85.081276 47.498875,84.6450781 L47.498875,84.6450781 L46.8445781,82.8872656 C45.8159323,83.6034115 44.7612448,83.9614844 43.6805156,83.9614844 C42.7560365,83.9614844 42.0154766,83.7271094 41.4588359,83.2583594 C40.9021953,82.7896094 40.6043438,82.0669531 40.5652813,81.0903906 L40.5652813,81.0903906 L47.5965313,81.0903906 C47.6290833,80.9927344 47.6453594,80.8495052 47.6453594,80.6607031 C47.6453594,79.9185156 47.5623516,79.2414323 47.3963359,78.6294531 C47.2303203,78.017474 46.9747865,77.4657161 46.6297344,76.9741797 C46.2846823,76.4826432 45.8159323,76.1001563 45.2234844,75.8267188 C44.6310365,75.5532813 43.9376771,75.4165625 43.1434063,75.4165625 C42.3491354,75.4165625 41.6248516,75.5597917 40.9705547,75.84625 C40.3162578,76.1327083 39.7758932,76.5200781 39.3494609,77.0083594 C38.9230286,77.4966406 38.592625,78.0565365 38.35825,78.6880469 C38.123875,79.3195573 38.0066875,79.986875 38.0066875,80.69 C38.0066875,82.2459896 38.4933411,83.5057552 39.4666484,84.4692969 C40.4399557,85.4328385 41.7697083,85.9146094 43.4559063,85.9146094 Z M45.5750469,79.4790625 L40.5945781,79.4790625 C40.7508281,78.7954688 41.0633281,78.2583594 41.5320781,77.8677344 C42.0008281,77.4771094 42.5835104,77.2817969 43.280125,77.2817969 C43.8725729,77.2817969 44.373875,77.470599 44.7840313,77.8482031 C45.1941875,78.2258073 45.4578594,78.7694271 45.5750469,79.4790625 L45.5750469,79.4790625 Z M52.6941875,85.69 L52.6941875,79.6939063 C52.6941875,79.3358333 52.7820781,79.0054297 52.9578594,78.7026953 C53.1336406,78.3999609 53.3533672,78.1558203 53.6170391,77.9702734 C53.8807109,77.7847266 54.1525208,77.6398698 54.4324688,77.5357031 C54.7124167,77.4315365 54.9695781,77.3794531 55.2039531,77.3794531 C55.841974,77.3794531 56.2993307,77.5633724 56.5760234,77.9312109 C56.8527161,78.2990495 56.9910625,78.9256771 56.9910625,79.8110938 L56.9910625,79.8110938 L56.9910625,85.69 L59.4129375,85.69 L59.4129375,79.9771094 C59.4129375,79.1242448 59.3250469,78.3983333 59.1492656,77.799375 C58.9734844,77.2004167 58.7179505,76.7300391 58.3826641,76.3882422 C58.0473776,76.0464453 57.6616354,75.7990495 57.2254375,75.6460547 C56.7892396,75.4930599 56.2814271,75.4165625 55.702,75.4165625 C55.1616354,75.4165625 54.6033672,75.5516536 54.0271953,75.8218359 C53.4510234,76.0920182 52.9904115,76.487526 52.6453594,77.0083594 L52.6453594,77.0083594 L52.6453594,75.6704688 L50.077,75.6704688 L50.1258281,76.1001563 C50.1583802,76.3801042 50.1909323,76.8374609 50.2234844,77.4722266 C50.2560365,78.1069922 50.2723125,78.7791927 50.2723125,79.4888281 L50.2723125,79.4888281 L50.2723125,85.69 L52.6941875,85.69 Z M64.6473125,85.69 L64.6473125,79.6939063 C64.6473125,79.3358333 64.7352031,79.0054297 64.9109844,78.7026953 C65.0867656,78.3999609 65.3064922,78.1558203 65.5701641,77.9702734 C65.8338359,77.7847266 66.1056458,77.6398698 66.3855938,77.5357031 C66.6655417,77.4315365 66.9227031,77.3794531 67.1570781,77.3794531 C67.795099,77.3794531 68.2524557,77.5633724 68.5291484,77.9312109 C68.8058411,78.2990495 68.9441875,78.9256771 68.9441875,79.8110938 L68.9441875,79.8110938 L68.9441875,85.69 L71.3660625,85.69 L71.3660625,79.9771094 C71.3660625,79.1242448 71.2781719,78.3983333 71.1023906,77.799375 C70.9266094,77.2004167 70.6710755,76.7300391 70.3357891,76.3882422 C70.0005026,76.0464453 69.6147604,75.7990495 69.1785625,75.6460547 C68.7423646,75.4930599 68.2345521,75.4165625 67.655125,75.4165625 C67.1147604,75.4165625 66.5564922,75.5516536 65.9803203,75.8218359 C65.4041484,76.0920182 64.9435365,76.487526 64.5984844,77.0083594 L64.5984844,77.0083594 L64.5984844,75.6704688 L62.030125,75.6704688 L62.0789531,76.1001563 C62.1115052,76.3801042 62.1440573,76.8374609 62.1766094,77.4722266 C62.2091615,78.1069922 62.2254375,78.7791927 62.2254375,79.4888281 L62.2254375,79.4888281 L62.2254375,85.69 L64.6473125,85.69 Z M79.1395,85.9146094 C79.92075,85.9146094 80.632013,85.8120703 81.2732891,85.6069922 C81.9145651,85.4019141 82.5509583,85.081276 83.1824688,84.6450781 L83.1824688,84.6450781 L82.5281719,82.8872656 C81.499526,83.6034115 80.4448385,83.9614844 79.3641094,83.9614844 C78.4396302,83.9614844 77.6990703,83.7271094 77.1424297,83.2583594 C76.5857891,82.7896094 76.2879375,82.0669531 76.248875,81.0903906 L76.248875,81.0903906 L83.280125,81.0903906 C83.3126771,80.9927344 83.3289531,80.8495052 83.3289531,80.6607031 C83.3289531,79.9185156 83.2459453,79.2414323 83.0799297,78.6294531 C82.9139141,78.017474 82.6583802,77.4657161 82.3133281,76.9741797 C81.968276,76.4826432 81.499526,76.1001563 80.9070781,75.8267188 C80.3146302,75.5532813 79.6212708,75.4165625 78.827,75.4165625 C78.0327292,75.4165625 77.3084453,75.5597917 76.6541484,75.84625 C75.9998516,76.1327083 75.459487,76.5200781 75.0330547,77.0083594 C74.6066224,77.4966406 74.2762188,78.0565365 74.0418438,78.6880469 C73.8074688,79.3195573 73.6902813,79.986875 73.6902813,80.69 C73.6902813,82.2459896 74.1769349,83.5057552 75.1502422,84.4692969 C76.1235495,85.4328385 77.4533021,85.9146094 79.1395,85.9146094 Z M81.2586406,79.4790625 L76.2781719,79.4790625 C76.4344219,78.7954688 76.7469219,78.2583594 77.2156719,77.8677344 C77.6844219,77.4771094 78.2671042,77.2817969 78.9637188,77.2817969 C79.5561667,77.2817969 80.0574688,77.470599 80.467625,77.8482031 C80.8777813,78.2258073 81.1414531,78.7694271 81.2586406,79.4790625 L81.2586406,79.4790625 Z M89.6277813,85.9146094 C89.9793438,85.9146094 90.3211406,85.8836849 90.6531719,85.8218359 C90.9852031,85.759987 91.3123516,85.6541927 91.6346172,85.5044531 C91.9568828,85.3547135 92.2368307,85.1659115 92.4744609,84.9380469 C92.7120911,84.7101823 92.9041484,84.4172135 93.0506328,84.0591406 C93.1971172,83.7010677 93.2703594,83.3006771 93.2703594,82.8579688 C93.2703594,82.2785417 93.1743307,81.7967708 92.9822734,81.4126563 C92.7902161,81.0285417 92.5363099,80.7323177 92.2205547,80.5239844 C91.9047995,80.315651 91.4865052,80.1235938 90.9656719,79.9478125 L90.9656719,79.9478125 L89.6668438,79.5083594 C89.1199688,79.3260677 88.7228333,79.1730729 88.4754375,79.049375 C88.2280417,78.9256771 88.0652813,78.8052344 87.9871563,78.6880469 C87.9090313,78.5708594 87.8699688,78.408099 87.8699688,78.1997656 C87.8699688,77.8872656 87.9936667,77.6626563 88.2410625,77.5259375 C88.4884583,77.3892188 88.888849,77.3208594 89.4422344,77.3208594 C89.8654115,77.3208594 90.3390443,77.392474 90.8631328,77.5357031 C91.3872214,77.6789323 91.8445781,77.8547135 92.2352031,78.0630469 L92.2352031,78.0630469 L92.8602031,76.4028906 C92.3784323,76.0838802 91.8185365,75.8429948 91.1805156,75.6802344 C90.5424948,75.517474 89.904474,75.4360938 89.2664531,75.4360938 C88.7521302,75.4360938 88.280125,75.4898047 87.8504375,75.5972266 C87.42075,75.7046484 87.030125,75.8690365 86.6785625,76.0903906 C86.327,76.3117448 86.0519349,76.6144792 85.8533672,76.9985938 C85.6547995,77.3827083 85.5555156,77.8286719 85.5555156,78.3364844 C85.5555156,78.6880469 85.5994609,78.9989193 85.6873516,79.2691016 C85.7752422,79.5392839 85.8891745,79.7671484 86.0291484,79.9526953 C86.1691224,80.1382422 86.3644349,80.3091406 86.6150859,80.4653906 C86.865737,80.6216406 87.1115052,80.7502214 87.3523906,80.8511328 C87.593276,80.9520443 87.8960104,81.0610938 88.2605938,81.1782813 L88.2605938,81.1782813 L89.686375,81.6372656 C90.2723125,81.8260677 90.6466615,81.9937109 90.8094219,82.1401953 C90.9721823,82.2866797 91.0535625,82.4640885 91.0535625,82.6724219 L91.0535625,82.6724219 L91.0535625,82.8482031 C91.0535625,83.2583594 90.9152161,83.5545833 90.6385234,83.736875 C90.3618307,83.9191667 89.9533021,84.0103125 89.4129375,84.0103125 C88.8335104,84.0103125 88.2312969,83.9077734 87.6062969,83.7026953 C86.9812969,83.4976172 86.4637188,83.2355729 86.0535625,82.9165625 L86.0535625,82.9165625 L85.4480938,84.6548438 C85.8842917,84.9998958 86.4702292,85.2961198 87.2059063,85.5435156 C87.9415833,85.7909115 88.748875,85.9146094 89.6277813,85.9146094 Z M99.2762188,85.9146094 C99.6277813,85.9146094 99.9695781,85.8836849 100.301609,85.8218359 C100.633641,85.759987 100.960789,85.6541927 101.283055,85.5044531 C101.60532,85.3547135 101.885268,85.1659115 102.122898,84.9380469 C102.360529,84.7101823 102.552586,84.4172135 102.69907,84.0591406 C102.845555,83.7010677 102.918797,83.3006771 102.918797,82.8579688 C102.918797,82.2785417 102.822768,81.7967708 102.630711,81.4126563 C102.438654,81.0285417 102.184747,80.7323177 101.868992,80.5239844 C101.553237,80.315651 101.134943,80.1235938 100.614109,79.9478125 L100.614109,79.9478125 L99.3152813,79.5083594 C98.7684063,79.3260677 98.3712708,79.1730729 98.123875,79.049375 C97.8764792,78.9256771 97.7137188,78.8052344 97.6355938,78.6880469 C97.5574688,78.5708594 97.5184063,78.408099 97.5184063,78.1997656 C97.5184063,77.8872656 97.6421042,77.6626563 97.8895,77.5259375 C98.1368958,77.3892188 98.5372865,77.3208594 99.0906719,77.3208594 C99.513849,77.3208594 99.9874818,77.392474 100.51157,77.5357031 C101.035659,77.6789323 101.493016,77.8547135 101.883641,78.0630469 L101.883641,78.0630469 L102.508641,76.4028906 C102.02687,76.0838802 101.466974,75.8429948 100.828953,75.6802344 C100.190932,75.517474 99.5529115,75.4360938 98.9148906,75.4360938 C98.4005677,75.4360938 97.9285625,75.4898047 97.498875,75.5972266 C97.0691875,75.7046484 96.6785625,75.8690365 96.327,76.0903906 C95.9754375,76.3117448 95.7003724,76.6144792 95.5018047,76.9985938 C95.303237,77.3827083 95.2039531,77.8286719 95.2039531,78.3364844 C95.2039531,78.6880469 95.2478984,78.9989193 95.3357891,79.2691016 C95.4236797,79.5392839 95.537612,79.7671484 95.6775859,79.9526953 C95.8175599,80.1382422 96.0128724,80.3091406 96.2635234,80.4653906 C96.5141745,80.6216406 96.7599427,80.7502214 97.0008281,80.8511328 C97.2417135,80.9520443 97.5444479,81.0610938 97.9090313,81.1782813 L97.9090313,81.1782813 L99.3348125,81.6372656 C99.92075,81.8260677 100.295099,81.9937109 100.457859,82.1401953 C100.62062,82.2866797 100.702,82.4640885 100.702,82.6724219 L100.702,82.6724219 L100.702,82.8482031 C100.702,83.2583594 100.563654,83.5545833 100.286961,83.736875 C100.010268,83.9191667 99.6017396,84.0103125 99.061375,84.0103125 C98.4819479,84.0103125 97.8797344,83.9077734 97.2547344,83.7026953 C96.6297344,83.4976172 96.1121563,83.2355729 95.702,82.9165625 L95.702,82.9165625 L95.0965313,84.6548438 C95.5327292,84.9998958 96.1186667,85.2961198 96.8543438,85.5435156 C97.5900208,85.7909115 98.3973125,85.9146094 99.2762188,85.9146094 Z" id="Openness" fill="url(#linearGradient-4)"></path>
                    <path d="M167.537938,85.69 L167.537938,79.6157813 L173.377781,79.6157813 L173.377781,77.4771094 L167.537938,77.4771094 L167.537938,73.6001563 L173.739109,73.6001563 L173.739109,71.47125 L165.057469,71.47125 L165.057469,85.69 L167.537938,85.69 Z M180.369969,85.9146094 C181.541844,85.9146094 182.492365,85.3840104 183.221531,84.3228125 L183.221531,84.3228125 L183.221531,85.69 L185.653172,85.69 L185.653172,75.6704688 L183.280125,75.6704688 L183.280125,76.7349219 C182.629083,75.8560156 181.698094,75.4165625 180.487156,75.4165625 C179.653823,75.4165625 178.90838,75.5679297 178.250828,75.8706641 C177.593276,76.1733984 177.064305,76.5802995 176.663914,77.0913672 C176.263523,77.6024349 175.959161,78.1720964 175.750828,78.8003516 C175.542495,79.4286068 175.438328,80.0910417 175.438328,80.7876563 C175.438328,81.4452083 175.53924,82.0734635 175.741063,82.6724219 C175.942885,83.2713802 176.239109,83.815 176.629734,84.3032813 C177.020359,84.7915625 177.537938,85.1821875 178.182469,85.4751563 C178.827,85.768125 179.556167,85.9146094 180.369969,85.9146094 Z M180.672703,83.9614844 C179.741714,83.9614844 179.036961,83.6620052 178.558445,83.0630469 C178.07993,82.4640885 177.840672,81.6633073 177.840672,80.6607031 C177.840672,79.658099 178.07993,78.8605729 178.558445,78.268125 C179.036961,77.6756771 179.725438,77.3794531 180.623875,77.3794531 C181.541844,77.3794531 182.227065,77.6740495 182.679539,78.2632422 C183.132013,78.8524349 183.35825,79.658099 183.35825,80.6802344 C183.35825,81.6763281 183.145034,82.4722266 182.718602,83.0679297 C182.292169,83.6636328 181.610203,83.9614844 180.672703,83.9614844 Z M190.721531,73.6001563 L190.721531,71.47125 L188.377781,71.47125 L188.377781,73.6001563 L190.721531,73.6001563 Z M190.721531,85.69 L190.721531,75.6704688 L188.387547,75.6704688 L188.387547,85.69 L190.721531,85.69 Z M196.102391,85.69 L196.102391,80.0161719 C196.102391,79.189349 196.313979,78.5578385 196.737156,78.1216406 C197.160333,77.6854427 197.707208,77.4673438 198.377781,77.4673438 C198.748875,77.4673438 199.152521,77.5389583 199.588719,77.6821875 L199.588719,77.6821875 L199.588719,75.5630469 C199.217625,75.4653906 198.885594,75.4165625 198.592625,75.4165625 C198.097833,75.4165625 197.653497,75.5483984 197.259617,75.8120703 C196.865737,76.0757422 196.470229,76.4679948 196.073094,76.9888281 L196.073094,76.9888281 L196.073094,75.6704688 L193.494969,75.6704688 L193.543797,76.0122656 C193.576349,76.2401302 193.608901,76.565651 193.641453,76.9888281 C193.674005,77.4120052 193.690281,77.8189063 193.690281,78.2095313 L193.690281,78.2095313 L193.690281,85.69 L196.102391,85.69 Z M203.690281,85.69 L203.690281,79.6939063 C203.690281,79.3358333 203.778172,79.0054297 203.953953,78.7026953 C204.129734,78.3999609 204.349461,78.1558203 204.613133,77.9702734 C204.876805,77.7847266 205.148615,77.6398698 205.428563,77.5357031 C205.70851,77.4315365 205.965672,77.3794531 206.200047,77.3794531 C206.838068,77.3794531 207.295424,77.5633724 207.572117,77.9312109 C207.84881,78.2990495 207.987156,78.9256771 207.987156,79.8110938 L207.987156,79.8110938 L207.987156,85.69 L210.409031,85.69 L210.409031,79.9771094 C210.409031,79.1242448 210.321141,78.3983333 210.145359,77.799375 C209.969578,77.2004167 209.714044,76.7300391 209.378758,76.3882422 C209.043471,76.0464453 208.657729,75.7990495 208.221531,75.6460547 C207.785333,75.4930599 207.277521,75.4165625 206.698094,75.4165625 C206.157729,75.4165625 205.599461,75.5516536 205.023289,75.8218359 C204.447117,76.0920182 203.986505,76.487526 203.641453,77.0083594 L203.641453,77.0083594 L203.641453,75.6704688 L201.073094,75.6704688 L201.121922,76.1001563 C201.154474,76.3801042 201.187026,76.8374609 201.219578,77.4722266 C201.25213,78.1069922 201.268406,78.7791927 201.268406,79.4888281 L201.268406,79.4888281 L201.268406,85.69 L203.690281,85.69 Z M218.182469,85.9146094 C218.963719,85.9146094 219.674982,85.8120703 220.316258,85.6069922 C220.957534,85.4019141 221.593927,85.081276 222.225438,84.6450781 L222.225438,84.6450781 L221.571141,82.8872656 C220.542495,83.6034115 219.487807,83.9614844 218.407078,83.9614844 C217.482599,83.9614844 216.742039,83.7271094 216.185398,83.2583594 C215.628758,82.7896094 215.330906,82.0669531 215.291844,81.0903906 L215.291844,81.0903906 L222.323094,81.0903906 C222.355646,80.9927344 222.371922,80.8495052 222.371922,80.6607031 C222.371922,79.9185156 222.288914,79.2414323 222.122898,78.6294531 C221.956883,78.017474 221.701349,77.4657161 221.356297,76.9741797 C221.011245,76.4826432 220.542495,76.1001563 219.950047,75.8267188 C219.357599,75.5532813 218.66424,75.4165625 217.869969,75.4165625 C217.075698,75.4165625 216.351414,75.5597917 215.697117,75.84625 C215.04282,76.1327083 214.502456,76.5200781 214.076023,77.0083594 C213.649591,77.4966406 213.319188,78.0565365 213.084813,78.6880469 C212.850438,79.3195573 212.73325,79.986875 212.73325,80.69 C212.73325,82.2459896 213.219904,83.5057552 214.193211,84.4692969 C215.166518,85.4328385 216.496271,85.9146094 218.182469,85.9146094 Z M220.301609,79.4790625 L215.321141,79.4790625 C215.477391,78.7954688 215.789891,78.2583594 216.258641,77.8677344 C216.727391,77.4771094 217.310073,77.2817969 218.006688,77.2817969 C218.599135,77.2817969 219.100438,77.470599 219.510594,77.8482031 C219.92075,78.2258073 220.184422,78.7694271 220.301609,79.4790625 L220.301609,79.4790625 Z M228.67075,85.9146094 C229.022313,85.9146094 229.364109,85.8836849 229.696141,85.8218359 C230.028172,85.759987 230.35532,85.6541927 230.677586,85.5044531 C230.999852,85.3547135 231.279799,85.1659115 231.51743,84.9380469 C231.75506,84.7101823 231.947117,84.4172135 232.093602,84.0591406 C232.240086,83.7010677 232.313328,83.3006771 232.313328,82.8579688 C232.313328,82.2785417 232.217299,81.7967708 232.025242,81.4126563 C231.833185,81.0285417 231.579279,80.7323177 231.263523,80.5239844 C230.947768,80.315651 230.529474,80.1235938 230.008641,79.9478125 L230.008641,79.9478125 L228.709813,79.5083594 C228.162938,79.3260677 227.765802,79.1730729 227.518406,79.049375 C227.27101,78.9256771 227.10825,78.8052344 227.030125,78.6880469 C226.952,78.5708594 226.912938,78.408099 226.912938,78.1997656 C226.912938,77.8872656 227.036635,77.6626563 227.284031,77.5259375 C227.531427,77.3892188 227.931818,77.3208594 228.485203,77.3208594 C228.90838,77.3208594 229.382013,77.392474 229.906102,77.5357031 C230.43019,77.6789323 230.887547,77.8547135 231.278172,78.0630469 L231.278172,78.0630469 L231.903172,76.4028906 C231.421401,76.0838802 230.861505,75.8429948 230.223484,75.6802344 C229.585464,75.517474 228.947443,75.4360938 228.309422,75.4360938 C227.795099,75.4360938 227.323094,75.4898047 226.893406,75.5972266 C226.463719,75.7046484 226.073094,75.8690365 225.721531,76.0903906 C225.369969,76.3117448 225.094904,76.6144792 224.896336,76.9985938 C224.697768,77.3827083 224.598484,77.8286719 224.598484,78.3364844 C224.598484,78.6880469 224.64243,78.9989193 224.73032,79.2691016 C224.818211,79.5392839 224.932143,79.7671484 225.072117,79.9526953 C225.212091,80.1382422 225.407404,80.3091406 225.658055,80.4653906 C225.908706,80.6216406 226.154474,80.7502214 226.395359,80.8511328 C226.636245,80.9520443 226.938979,81.0610938 227.303563,81.1782813 L227.303563,81.1782813 L228.729344,81.6372656 C229.315281,81.8260677 229.68963,81.9937109 229.852391,82.1401953 C230.015151,82.2866797 230.096531,82.4640885 230.096531,82.6724219 L230.096531,82.6724219 L230.096531,82.8482031 C230.096531,83.2583594 229.958185,83.5545833 229.681492,83.736875 C229.404799,83.9191667 228.996271,84.0103125 228.455906,84.0103125 C227.876479,84.0103125 227.274266,83.9077734 226.649266,83.7026953 C226.024266,83.4976172 225.506688,83.2355729 225.096531,82.9165625 L225.096531,82.9165625 L224.491063,84.6548438 C224.92726,84.9998958 225.513198,85.2961198 226.248875,85.5435156 C226.984552,85.7909115 227.791844,85.9146094 228.67075,85.9146094 Z M238.319188,85.9146094 C238.67075,85.9146094 239.012547,85.8836849 239.344578,85.8218359 C239.676609,85.759987 240.003758,85.6541927 240.326023,85.5044531 C240.648289,85.3547135 240.928237,85.1659115 241.165867,84.9380469 C241.403497,84.7101823 241.595555,84.4172135 241.742039,84.0591406 C241.888523,83.7010677 241.961766,83.3006771 241.961766,82.8579688 C241.961766,82.2785417 241.865737,81.7967708 241.67368,81.4126563 C241.481622,81.0285417 241.227716,80.7323177 240.911961,80.5239844 C240.596206,80.315651 240.177911,80.1235938 239.657078,79.9478125 L239.657078,79.9478125 L238.35825,79.5083594 C237.811375,79.3260677 237.41424,79.1730729 237.166844,79.049375 C236.919448,78.9256771 236.756688,78.8052344 236.678563,78.6880469 C236.600438,78.5708594 236.561375,78.408099 236.561375,78.1997656 C236.561375,77.8872656 236.685073,77.6626563 236.932469,77.5259375 C237.179865,77.3892188 237.580255,77.3208594 238.133641,77.3208594 C238.556818,77.3208594 239.030451,77.392474 239.554539,77.5357031 C240.078628,77.6789323 240.535984,77.8547135 240.926609,78.0630469 L240.926609,78.0630469 L241.551609,76.4028906 C241.069839,76.0838802 240.509943,75.8429948 239.871922,75.6802344 C239.233901,75.517474 238.59588,75.4360938 237.957859,75.4360938 C237.443536,75.4360938 236.971531,75.4898047 236.541844,75.5972266 C236.112156,75.7046484 235.721531,75.8690365 235.369969,76.0903906 C235.018406,76.3117448 234.743341,76.6144792 234.544773,76.9985938 C234.346206,77.3827083 234.246922,77.8286719 234.246922,78.3364844 C234.246922,78.6880469 234.290867,78.9989193 234.378758,79.2691016 C234.466648,79.5392839 234.580581,79.7671484 234.720555,79.9526953 C234.860529,80.1382422 235.055841,80.3091406 235.306492,80.4653906 C235.557143,80.6216406 235.802911,80.7502214 236.043797,80.8511328 C236.284682,80.9520443 236.587417,81.0610938 236.952,81.1782813 L236.952,81.1782813 L238.377781,81.6372656 C238.963719,81.8260677 239.338068,81.9937109 239.500828,82.1401953 C239.663589,82.2866797 239.744969,82.4640885 239.744969,82.6724219 L239.744969,82.6724219 L239.744969,82.8482031 C239.744969,83.2583594 239.606622,83.5545833 239.32993,83.736875 C239.053237,83.9191667 238.644708,84.0103125 238.104344,84.0103125 C237.524917,84.0103125 236.922703,83.9077734 236.297703,83.7026953 C235.672703,83.4976172 235.155125,83.2355729 234.744969,82.9165625 L234.744969,82.9165625 L234.1395,84.6548438 C234.575698,84.9998958 235.161635,85.2961198 235.897313,85.5435156 C236.63299,85.7909115 237.440281,85.9146094 238.319188,85.9146094 Z" id="Fairness" fill="url(#linearGradient-5)"></path>
                    <path d="M292.244969,85.69 L292.244969,71.47125 L289.7645,71.47125 L289.7645,85.69 L292.244969,85.69 Z M297.909031,85.69 L297.909031,79.6060156 C297.909031,79.0135677 298.136896,78.494362 298.592625,78.0483984 C299.048354,77.6024349 299.618016,77.3794531 300.301609,77.3794531 C300.549005,77.3794531 300.768732,77.4282813 300.960789,77.5259375 C301.152846,77.6235938 301.302586,77.7472917 301.410008,77.8970313 C301.51743,78.0467708 301.603693,78.2241797 301.668797,78.4292578 C301.733901,78.6343359 301.777846,78.8263932 301.800633,79.0054297 C301.823419,79.1844661 301.834813,79.3716406 301.834813,79.5669531 L301.834813,79.5669531 L301.834813,85.69 L304.256688,85.69 L304.256688,80.0161719 C304.256688,79.3521094 304.487807,78.7466406 304.950047,78.1997656 C305.412286,77.6528906 306.001479,77.3794531 306.717625,77.3794531 C306.991063,77.3794531 307.227065,77.4526953 307.425633,77.5991797 C307.624201,77.7456641 307.77394,77.9409766 307.874852,78.1851172 C307.975763,78.4292578 308.049005,78.675026 308.094578,78.9224219 C308.140151,79.1698177 308.162938,79.4269792 308.162938,79.6939063 L308.162938,79.6939063 L308.162938,85.69 L310.584813,85.69 L310.584813,79.5474219 C310.584813,78.2648698 310.277195,77.2557552 309.661961,76.5200781 C309.046727,75.784401 308.12713,75.4165625 306.903172,75.4165625 C305.594578,75.4165625 304.510594,76.0350521 303.651219,77.2720313 C303.36476,76.6600521 302.954604,76.1978125 302.42075,75.8853125 C301.886896,75.5728125 301.297703,75.4165625 300.653172,75.4165625 C300.054214,75.4165625 299.499201,75.5630469 298.988133,75.8560156 C298.477065,76.1489844 298.097833,76.5233333 297.850438,76.9790625 L297.850438,76.9790625 L297.850438,75.6704688 L295.301609,75.6704688 L295.3895,76.7642188 C295.454604,77.4933854 295.487156,78.2030208 295.487156,78.893125 L295.487156,78.893125 L295.487156,85.69 L297.909031,85.69 Z M315.828953,89.5474219 L315.828953,84.3130469 C315.907078,84.6385677 316.222833,84.986875 316.776219,85.3579688 C317.329604,85.7290625 318.000177,85.9146094 318.787938,85.9146094 C319.484552,85.9146094 320.122573,85.7632422 320.702,85.4605078 C321.281427,85.1577734 321.756688,84.7541276 322.127781,84.2495703 C322.498875,83.745013 322.785333,83.1753516 322.987156,82.5405859 C323.188979,81.9058203 323.289891,81.2466406 323.289891,80.5630469 C323.289891,79.6515885 323.118992,78.8084896 322.777195,78.03375 C322.435398,77.2590104 321.927586,76.6291276 321.253758,76.1441016 C320.57993,75.6590755 319.803563,75.4165625 318.924656,75.4165625 C318.091323,75.4165625 317.38657,75.6069922 316.810398,75.9878516 C316.234227,76.3687109 315.907078,76.7414323 315.828953,77.1060156 L315.828953,77.1060156 L315.828953,75.6704688 L313.260594,75.6704688 C313.384292,77.3371354 313.446141,78.4601823 313.446141,79.0396094 L313.446141,79.0396094 L313.446141,89.5474219 L315.828953,89.5474219 Z M318.231297,83.9614844 C317.788589,83.9614844 317.399591,83.8703385 317.064305,83.6880469 C316.729018,83.5057552 316.463719,83.2567318 316.268406,82.9409766 C316.073094,82.6252214 315.928237,82.2736589 315.833836,81.8862891 C315.739435,81.4989193 315.692234,81.0773698 315.692234,80.6216406 C315.692234,80.0096615 315.77687,79.4676693 315.946141,78.9956641 C316.115411,78.5236589 316.395359,78.1362891 316.785984,77.8335547 C317.176609,77.5308203 317.655125,77.3794531 318.221531,77.3794531 C318.794448,77.3794531 319.277846,77.5324479 319.671727,77.8384375 C320.065607,78.1444271 320.347182,78.5383073 320.516453,79.0200781 C320.685724,79.501849 320.770359,80.0519792 320.770359,80.6704688 C320.770359,81.1196875 320.723159,81.5347266 320.628758,81.9155859 C320.534357,82.2964453 320.391128,82.643125 320.19907,82.955625 C320.007013,83.268125 319.743341,83.5138932 319.408055,83.6929297 C319.072768,83.8719661 318.680516,83.9614844 318.231297,83.9614844 Z M330.301609,85.9146094 C331.473484,85.9146094 332.424005,85.3840104 333.153172,84.3228125 L333.153172,84.3228125 L333.153172,85.69 L335.584813,85.69 L335.584813,75.6704688 L333.211766,75.6704688 L333.211766,76.7349219 C332.560724,75.8560156 331.629734,75.4165625 330.418797,75.4165625 C329.585464,75.4165625 328.840021,75.5679297 328.182469,75.8706641 C327.524917,76.1733984 326.995945,76.5802995 326.595555,77.0913672 C326.195164,77.6024349 325.890802,78.1720964 325.682469,78.8003516 C325.474135,79.4286068 325.369969,80.0910417 325.369969,80.7876563 C325.369969,81.4452083 325.47088,82.0734635 325.672703,82.6724219 C325.874526,83.2713802 326.17075,83.815 326.561375,84.3032813 C326.952,84.7915625 327.469578,85.1821875 328.114109,85.4751563 C328.758641,85.768125 329.487807,85.9146094 330.301609,85.9146094 Z M330.604344,83.9614844 C329.673354,83.9614844 328.968602,83.6620052 328.490086,83.0630469 C328.01157,82.4640885 327.772313,81.6633073 327.772313,80.6607031 C327.772313,79.658099 328.01157,78.8605729 328.490086,78.268125 C328.968602,77.6756771 329.657078,77.3794531 330.555516,77.3794531 C331.473484,77.3794531 332.158706,77.6740495 332.61118,78.2632422 C333.063654,78.8524349 333.289891,79.658099 333.289891,80.6802344 C333.289891,81.6763281 333.076674,82.4722266 332.650242,83.0679297 C332.22381,83.6636328 331.541844,83.9614844 330.604344,83.9614844 Z M340.916844,85.69 L340.916844,80.0161719 C340.916844,79.189349 341.128432,78.5578385 341.551609,78.1216406 C341.974786,77.6854427 342.521661,77.4673438 343.192234,77.4673438 C343.563328,77.4673438 343.966974,77.5389583 344.403172,77.6821875 L344.403172,77.6821875 L344.403172,75.5630469 C344.032078,75.4653906 343.700047,75.4165625 343.407078,75.4165625 C342.912286,75.4165625 342.467951,75.5483984 342.07407,75.8120703 C341.68019,76.0757422 341.284682,76.4679948 340.887547,76.9888281 L340.887547,76.9888281 L340.887547,75.6704688 L338.309422,75.6704688 L338.35825,76.0122656 C338.390802,76.2401302 338.423354,76.565651 338.455906,76.9888281 C338.488458,77.4120052 338.504734,77.8189063 338.504734,78.2095313 L338.504734,78.2095313 L338.504734,85.69 L340.916844,85.69 Z M351.746922,85.6802344 L351.746922,83.8247656 C351.25213,83.8247656 350.868016,83.815 350.594578,83.7954688 C350.321141,83.7759375 350.068862,83.736875 349.837742,83.6782813 C349.606622,83.6196875 349.442234,83.5269141 349.344578,83.3999609 C349.246922,83.2730078 349.17368,83.1135026 349.124852,82.9214453 C349.076023,82.729388 349.051609,82.4771094 349.051609,82.1646094 L349.051609,82.1646094 L349.051609,77.2915625 L351.668797,77.2915625 L351.668797,75.6704688 L349.051609,75.6704688 L349.051609,72.6138281 L346.737156,73.3267188 L346.737156,75.6704688 L344.549656,75.6704688 L344.549656,77.2915625 L346.6395,77.2915625 L346.6395,82.018125 C346.6395,82.4803646 346.67368,82.8905208 346.742039,83.2485938 C346.810398,83.6066667 346.903172,83.9142839 347.020359,84.1714453 C347.137547,84.4286068 347.293797,84.6483333 347.489109,84.830625 C347.684422,85.0129167 347.887872,85.1577734 348.099461,85.2651953 C348.311049,85.3726172 348.568211,85.4588802 348.870945,85.5239844 C349.17368,85.5890885 349.468276,85.6314063 349.754734,85.6509375 C350.041193,85.6704688 350.379734,85.6802344 350.770359,85.6802344 L350.770359,85.6802344 L351.746922,85.6802344 Z M356.121922,73.6001563 L356.121922,71.47125 L353.778172,71.47125 L353.778172,73.6001563 L356.121922,73.6001563 Z M356.121922,85.69 L356.121922,75.6704688 L353.787938,75.6704688 L353.787938,85.69 L356.121922,85.69 Z M363.494969,85.9146094 C364.666844,85.9146094 365.617365,85.3840104 366.346531,84.3228125 L366.346531,84.3228125 L366.346531,85.69 L368.778172,85.69 L368.778172,75.6704688 L366.405125,75.6704688 L366.405125,76.7349219 C365.754083,75.8560156 364.823094,75.4165625 363.612156,75.4165625 C362.778823,75.4165625 362.03338,75.5679297 361.375828,75.8706641 C360.718276,76.1733984 360.189305,76.5802995 359.788914,77.0913672 C359.388523,77.6024349 359.084161,78.1720964 358.875828,78.8003516 C358.667495,79.4286068 358.563328,80.0910417 358.563328,80.7876563 C358.563328,81.4452083 358.66424,82.0734635 358.866063,82.6724219 C359.067885,83.2713802 359.364109,83.815 359.754734,84.3032813 C360.145359,84.7915625 360.662938,85.1821875 361.307469,85.4751563 C361.952,85.768125 362.681167,85.9146094 363.494969,85.9146094 Z M363.797703,83.9614844 C362.866714,83.9614844 362.161961,83.6620052 361.683445,83.0630469 C361.20493,82.4640885 360.965672,81.6633073 360.965672,80.6607031 C360.965672,79.658099 361.20493,78.8605729 361.683445,78.268125 C362.161961,77.6756771 362.850438,77.3794531 363.748875,77.3794531 C364.666844,77.3794531 365.352065,77.6740495 365.804539,78.2632422 C366.257013,78.8524349 366.48325,79.658099 366.48325,80.6802344 C366.48325,81.6763281 366.270034,82.4722266 365.843602,83.0679297 C365.417169,83.6636328 364.735203,83.9614844 363.797703,83.9614844 Z M373.895359,85.69 L373.895359,71.4614844 L371.502781,71.4614844 L371.502781,85.69 L373.895359,85.69 Z M378.98325,73.6001563 L378.98325,71.47125 L376.6395,71.47125 L376.6395,73.6001563 L378.98325,73.6001563 Z M378.98325,85.69 L378.98325,75.6704688 L376.649266,75.6704688 L376.649266,85.69 L378.98325,85.69 Z M387.577,85.6802344 L387.577,83.8247656 C387.082208,83.8247656 386.698094,83.815 386.424656,83.7954688 C386.151219,83.7759375 385.89894,83.736875 385.66782,83.6782813 C385.436701,83.6196875 385.272313,83.5269141 385.174656,83.3999609 C385.077,83.2730078 385.003758,83.1135026 384.95493,82.9214453 C384.906102,82.729388 384.881688,82.4771094 384.881688,82.1646094 L384.881688,82.1646094 L384.881688,77.2915625 L387.498875,77.2915625 L387.498875,75.6704688 L384.881688,75.6704688 L384.881688,72.6138281 L382.567234,73.3267188 L382.567234,75.6704688 L380.379734,75.6704688 L380.379734,77.2915625 L382.469578,77.2915625 L382.469578,82.018125 C382.469578,82.4803646 382.503758,82.8905208 382.572117,83.2485938 C382.640477,83.6066667 382.73325,83.9142839 382.850438,84.1714453 C382.967625,84.4286068 383.123875,84.6483333 383.319188,84.830625 C383.5145,85.0129167 383.717951,85.1577734 383.929539,85.2651953 C384.141128,85.3726172 384.398289,85.4588802 384.701023,85.5239844 C385.003758,85.5890885 385.298354,85.6314063 385.584813,85.6509375 C385.871271,85.6704688 386.209813,85.6802344 386.600438,85.6802344 L386.600438,85.6802344 L387.577,85.6802344 Z M390.702,90.0357031 C391.281427,89.8534115 391.818536,89.612526 392.313328,89.3130469 C392.80812,89.0135677 393.28338,88.5985286 393.739109,88.0679297 C394.194839,87.5373307 394.562677,86.9269792 394.842625,86.236875 L394.842625,86.236875 L398.905125,75.6704688 L396.434422,75.6704688 L393.934422,82.8579688 L391.034031,75.6704688 L388.5145,75.6704688 L392.772313,85.4653906 L392.635594,85.9536719 C392.479344,86.4810156 392.174982,86.931862 391.722508,87.3062109 C391.270034,87.6805599 390.591323,88.0435156 389.686375,88.3950781 L389.686375,88.3950781 L390.702,90.0357031 Z" id="Impartiality" fill="url(#linearGradient-6)"></path>
                    <path d="M451.244969,85.69 L451.244969,71.47125 L448.7645,71.47125 L448.7645,85.69 L451.244969,85.69 Z M456.8895,85.69 L456.8895,79.6939063 C456.8895,79.3358333 456.977391,79.0054297 457.153172,78.7026953 C457.328953,78.3999609 457.54868,78.1558203 457.812352,77.9702734 C458.076023,77.7847266 458.347833,77.6398698 458.627781,77.5357031 C458.907729,77.4315365 459.164891,77.3794531 459.399266,77.3794531 C460.037286,77.3794531 460.494643,77.5633724 460.771336,77.9312109 C461.048029,78.2990495 461.186375,78.9256771 461.186375,79.8110938 L461.186375,79.8110938 L461.186375,85.69 L463.60825,85.69 L463.60825,79.9771094 C463.60825,79.1242448 463.520359,78.3983333 463.344578,77.799375 C463.168797,77.2004167 462.913263,76.7300391 462.577977,76.3882422 C462.24269,76.0464453 461.856948,75.7990495 461.42075,75.6460547 C460.984552,75.4930599 460.47674,75.4165625 459.897313,75.4165625 C459.356948,75.4165625 458.79868,75.5516536 458.222508,75.8218359 C457.646336,76.0920182 457.185724,76.487526 456.840672,77.0083594 L456.840672,77.0083594 L456.840672,75.6704688 L454.272313,75.6704688 L454.321141,76.1001563 C454.353693,76.3801042 454.386245,76.8374609 454.418797,77.4722266 C454.451349,78.1069922 454.467625,78.7791927 454.467625,79.4888281 L454.467625,79.4888281 L454.467625,85.69 L456.8895,85.69 Z M472.084813,85.6802344 L472.084813,83.8247656 C471.590021,83.8247656 471.205906,83.815 470.932469,83.7954688 C470.659031,83.7759375 470.406753,83.736875 470.175633,83.6782813 C469.944513,83.6196875 469.780125,83.5269141 469.682469,83.3999609 C469.584813,83.2730078 469.51157,83.1135026 469.462742,82.9214453 C469.413914,82.729388 469.3895,82.4771094 469.3895,82.1646094 L469.3895,82.1646094 L469.3895,77.2915625 L472.006688,77.2915625 L472.006688,75.6704688 L469.3895,75.6704688 L469.3895,72.6138281 L467.075047,73.3267188 L467.075047,75.6704688 L464.887547,75.6704688 L464.887547,77.2915625 L466.977391,77.2915625 L466.977391,82.018125 C466.977391,82.4803646 467.01157,82.8905208 467.07993,83.2485938 C467.148289,83.6066667 467.241063,83.9142839 467.35825,84.1714453 C467.475438,84.4286068 467.631688,84.6483333 467.827,84.830625 C468.022313,85.0129167 468.225763,85.1577734 468.437352,85.2651953 C468.64894,85.3726172 468.906102,85.4588802 469.208836,85.5239844 C469.51157,85.5890885 469.806167,85.6314063 470.092625,85.6509375 C470.379083,85.6704688 470.717625,85.6802344 471.10825,85.6802344 L471.10825,85.6802344 L472.084813,85.6802344 Z M479.23325,85.9146094 C480.0145,85.9146094 480.725763,85.8120703 481.367039,85.6069922 C482.008315,85.4019141 482.644708,85.081276 483.276219,84.6450781 L483.276219,84.6450781 L482.621922,82.8872656 C481.593276,83.6034115 480.538589,83.9614844 479.457859,83.9614844 C478.53338,83.9614844 477.79282,83.7271094 477.23618,83.2583594 C476.679539,82.7896094 476.381688,82.0669531 476.342625,81.0903906 L476.342625,81.0903906 L483.373875,81.0903906 C483.406427,80.9927344 483.422703,80.8495052 483.422703,80.6607031 C483.422703,79.9185156 483.339695,79.2414323 483.17368,78.6294531 C483.007664,78.017474 482.75213,77.4657161 482.407078,76.9741797 C482.062026,76.4826432 481.593276,76.1001563 481.000828,75.8267188 C480.40838,75.5532813 479.715021,75.4165625 478.92075,75.4165625 C478.126479,75.4165625 477.402195,75.5597917 476.747898,75.84625 C476.093602,76.1327083 475.553237,76.5200781 475.126805,77.0083594 C474.700372,77.4966406 474.369969,78.0565365 474.135594,78.6880469 C473.901219,79.3195573 473.784031,79.986875 473.784031,80.69 C473.784031,82.2459896 474.270685,83.5057552 475.243992,84.4692969 C476.217299,85.4328385 477.547052,85.9146094 479.23325,85.9146094 Z M481.352391,79.4790625 L476.371922,79.4790625 C476.528172,78.7954688 476.840672,78.2583594 477.309422,77.8677344 C477.778172,77.4771094 478.360854,77.2817969 479.057469,77.2817969 C479.649917,77.2817969 480.151219,77.470599 480.561375,77.8482031 C480.971531,78.2258073 481.235203,78.7694271 481.352391,79.4790625 L481.352391,79.4790625 Z M490.151219,89.7720313 C493.61476,89.7720313 495.346531,87.9328385 495.346531,84.2544531 L495.346531,84.2544531 L495.346531,79.0298438 C495.346531,77.7798438 495.411635,76.6600521 495.541844,75.6704688 L495.541844,75.6704688 L492.973484,75.6704688 L492.973484,76.7446875 C492.719578,76.3540625 492.359878,76.0350521 491.894383,75.7876563 C491.428888,75.5402604 490.886896,75.4165625 490.268406,75.4165625 C489.480646,75.4165625 488.779148,75.5597917 488.163914,75.84625 C487.54868,76.1327083 487.055516,76.5233333 486.684422,77.018125 C486.313328,77.5129167 486.03338,78.0679297 485.844578,78.6831641 C485.655776,79.2983984 485.561375,79.9575781 485.561375,80.6607031 C485.561375,82.1971615 486.007339,83.4194922 486.899266,84.3276953 C487.791193,85.2358984 488.976089,85.69 490.453953,85.69 C491.554214,85.69 492.390802,85.2928646 492.963719,84.4985938 L492.963719,84.4985938 L492.963719,85.3482031 C492.963719,86.1554948 492.700047,86.7593359 492.172703,87.1597266 C491.645359,87.5601172 490.912938,87.7603125 489.975438,87.7603125 C488.810073,87.7603125 487.739109,87.5064063 486.762547,86.9985938 L486.762547,86.9985938 L486.342625,89.0884375 C487.579604,89.5441667 488.849135,89.7720313 490.151219,89.7720313 Z M490.619969,83.8638281 C489.760594,83.8638281 489.125828,83.580625 488.715672,83.0142188 C488.305516,82.4478125 488.100438,81.6633073 488.100438,80.6607031 C488.100438,80.0682552 488.188328,79.5311458 488.364109,79.049375 C488.539891,78.5676042 488.824721,78.1688411 489.218602,77.8530859 C489.612482,77.5373307 490.08937,77.3794531 490.649266,77.3794531 C491.463068,77.3794531 492.073419,77.6805599 492.48032,78.2827734 C492.887221,78.884987 493.090672,79.674375 493.090672,80.6509375 C493.090672,80.9764583 493.069513,81.2840755 493.027195,81.5737891 C492.984878,81.8635026 492.906753,82.1515885 492.79282,82.4380469 C492.678888,82.7245052 492.530776,82.9702734 492.348484,83.1753516 C492.166193,83.3804297 491.928563,83.5464453 491.635594,83.6733984 C491.342625,83.8003516 491.004083,83.8638281 490.619969,83.8638281 Z M500.561375,85.69 L500.561375,80.0161719 C500.561375,79.189349 500.772964,78.5578385 501.196141,78.1216406 C501.619318,77.6854427 502.166193,77.4673438 502.836766,77.4673438 C503.207859,77.4673438 503.611505,77.5389583 504.047703,77.6821875 L504.047703,77.6821875 L504.047703,75.5630469 C503.676609,75.4653906 503.344578,75.4165625 503.051609,75.4165625 C502.556818,75.4165625 502.112482,75.5483984 501.718602,75.8120703 C501.324721,76.0757422 500.929214,76.4679948 500.532078,76.9888281 L500.532078,76.9888281 L500.532078,75.6704688 L497.953953,75.6704688 L498.002781,76.0122656 C498.035333,76.2401302 498.067885,76.565651 498.100438,76.9888281 C498.13299,77.4120052 498.149266,77.8189063 498.149266,78.2095313 L498.149266,78.2095313 L498.149266,85.69 L500.561375,85.69 Z M507.914891,73.6001563 L507.914891,71.47125 L505.571141,71.47125 L505.571141,73.6001563 L507.914891,73.6001563 Z M507.914891,85.69 L507.914891,75.6704688 L505.580906,75.6704688 L505.580906,85.69 L507.914891,85.69 Z M516.508641,85.6802344 L516.508641,83.8247656 C516.013849,83.8247656 515.629734,83.815 515.356297,83.7954688 C515.082859,83.7759375 514.830581,83.736875 514.599461,83.6782813 C514.368341,83.6196875 514.203953,83.5269141 514.106297,83.3999609 C514.008641,83.2730078 513.935398,83.1135026 513.88657,82.9214453 C513.837742,82.729388 513.813328,82.4771094 513.813328,82.1646094 L513.813328,82.1646094 L513.813328,77.2915625 L516.430516,77.2915625 L516.430516,75.6704688 L513.813328,75.6704688 L513.813328,72.6138281 L511.498875,73.3267188 L511.498875,75.6704688 L509.311375,75.6704688 L509.311375,77.2915625 L511.401219,77.2915625 L511.401219,82.018125 C511.401219,82.4803646 511.435398,82.8905208 511.503758,83.2485938 C511.572117,83.6066667 511.664891,83.9142839 511.782078,84.1714453 C511.899266,84.4286068 512.055516,84.6483333 512.250828,84.830625 C512.446141,85.0129167 512.649591,85.1577734 512.86118,85.2651953 C513.072768,85.3726172 513.32993,85.4588802 513.632664,85.5239844 C513.935398,85.5890885 514.229995,85.6314063 514.516453,85.6509375 C514.802911,85.6704688 515.141453,85.6802344 515.532078,85.6802344 L515.532078,85.6802344 L516.508641,85.6802344 Z M519.633641,90.0357031 C520.213068,89.8534115 520.750177,89.612526 521.244969,89.3130469 C521.73976,89.0135677 522.215021,88.5985286 522.67075,88.0679297 C523.126479,87.5373307 523.494318,86.9269792 523.774266,86.236875 L523.774266,86.236875 L527.836766,75.6704688 L525.366063,75.6704688 L522.866063,82.8579688 L519.965672,75.6704688 L517.446141,75.6704688 L521.703953,85.4653906 L521.567234,85.9536719 C521.410984,86.4810156 521.106622,86.931862 520.654148,87.3062109 C520.201674,87.6805599 519.522964,88.0435156 518.618016,88.3950781 L518.618016,88.3950781 L519.633641,90.0357031 Z" id="Integrity" fill="url(#linearGradient-7)"></path>
                </g>
            </g>
        </g>
    </g>
</svg>