<?xml version="1.0" encoding="UTF-8"?>
<svg width="32px" height="32px" viewBox="0 0 32 32" version="1.1" xmlns="http://www.w3.org/2000/svg" xmlns:xlink="http://www.w3.org/1999/xlink">
    <title>Footer/Facebook</title>
    <g id="Footer/Facebook" stroke="none" stroke-width="1" fill="none" fill-rule="evenodd">
        <path d="M16,1 C20.1442506,1 23.8904641,2.67758873 26.6061432,5.39359822 C29.3221253,8.10991064 31,11.8555561 31,15.9998485 C31,20.1444439 29.3221253,23.8903923 26.6061432,26.6064018 C23.8904641,29.3221083 20.1442506,31 16,31 C11.8554465,31 8.10953593,29.3221083 5.39355386,26.6064018 C2.67787471,23.8903923 1,20.1444439 1,15.9998485 C1,11.8555561 2.67787471,8.10991064 5.39355386,5.39359822 C8.10953593,2.67758873 11.8554465,1 16,1 Z M16,2.1707982 C12.1795711,2.1707982 8.72416091,3.72418842 6.22416091,6.22421366 C3.72416091,8.72423891 2.1710893,12.179381 2.1710893,15.9998485 C2.1710893,19.820619 3.72416091,23.2757611 6.22416091,25.7839653 C8.72416091,28.2842934 12.1795711,29.8288989 16,29.8288989 C19.8204289,29.8288989 23.2758391,28.2842934 25.7840179,25.7839653 C28.2840179,23.2757611 29.8289107,19.820619 29.8289107,15.9998485 C29.8289107,12.179381 28.2840179,8.72423891 25.7840179,6.22421366 C23.2758391,3.72418842 19.8204289,2.1707982 16,2.1707982 Z M19.5382285,8.35037108 L19.5382285,10.9752007 L17.8191567,10.9752007 C17.5365322,10.9752007 17.1460681,11.1163629 17.1460681,11.7058515 L17.1460681,11.7058515 L17.1460681,12.9351138 L19.5797286,12.9351138 L19.3970677,14.7956682 L19.297407,16.0000909 L17.0300497,16.0000909 L17.0300497,23.6576867 L13.9651036,23.6576867 L13.9651036,16.0000909 L12.4202108,16.0000909 L12.4202108,12.9351138 L13.948443,12.9351138 L13.948443,11.5565103 C13.948443,10.2936235 14.5382285,8.35037108 17.1712105,8.35037108 L17.1712105,8.35037108 L19.5382285,8.35037108 Z" id="形状结合" fill="#FEFEFE"></path>
    </g>
</svg>