<?xml version="1.0" encoding="UTF-8"?>
<svg width="213px" height="44px" viewBox="0 0 213 44" version="1.1" xmlns="http://www.w3.org/2000/svg" xmlns:xlink="http://www.w3.org/1999/xlink">
    <title>in_UST-GZ_white_tc_L1</title>
    <g id="3.0" stroke="none" stroke-width="1" fill="none" fill-rule="evenodd">
        <g id="采购首页" transform="translate(-230.000000, -2085.000000)" fill="#FFFFFF" fill-rule="nonzero">
            <g id="in_UST-GZ_white_tc_L1" transform="translate(230.000000, 2085.000000)">
                <g id="编组" transform="translate(-0.000000, 0.000000)">
                    <path d="M21.6471275,43.14 L16.6081287,34.7588081 C16.6081287,34.7588081 16.4538737,34.5531347 16.4538737,34.2446246 L16.4538737,34.0389511 L16.4538737,33.6276043 L16.4538737,18.6134446 L14.5513945,18.6134446 L14.5513945,34.1932062 L14.5513945,34.6559714 C14.7056496,34.8102265 17.8935876,40.2091538 17.8935876,40.2091538 L10.0265793,40.2091538 C10.0265793,40.2091538 13.2145173,34.8102265 13.3687723,34.6559714 L13.3687723,34.1932062 L13.3687723,18.6134446 L11.4148749,18.6134446 L11.4148749,33.5761859 L11.4148749,33.9875328 L11.4148749,34.1932062 C11.4148749,34.5017163 11.2606198,34.7073897 11.2606198,34.7073897 L6.22162098,43.0885816 L21.6471275,43.0885816 L21.6471275,43.14 Z" id="路径"></path>
                    <g transform="translate(7.666769, -0.000000)" id="路径">
                        <path d="M12.4378082,7.71275328 C12.4378082,7.71275328 13.3633386,3.80495828 10.0211455,1.23404052 C10.0211455,1.23404052 8.68426829,2.28343367e-16 6.11335053,2.28343367e-16 C3.74810619,2.28343367e-16 2.41122896,1.23404052 2.41122896,1.23404052 C-0.725290708,3.39361144 0.0974029751,7.71275328 0.0974029751,7.71275328 L12.4378082,7.71275328 Z"></path>
                        <path d="M0.457331461,8.79253874 L12.0264614,8.79253874 C12.1292981,8.58686532 12.1807164,8.32977354 12.2835532,8.12410012 L0.251658041,8.12410012 C0.303076396,8.3811919 0.405913106,8.58686532 0.457331461,8.79253874 Z"></path>
                        <path d="M11.8722063,9.20388558 L0.663004882,9.20388558 C0.765841592,9.46097735 0.920096658,9.66665077 1.07435172,9.8723242 L11.5122778,9.8723242 C11.6151145,9.66665077 11.7693696,9.46097735 11.8722063,9.20388558 Z"></path>
                        <path d="M1.7942087,10.8492729 L10.7410025,10.8492729 C10.8952576,10.6950179 11.0495126,10.4893445 11.2037677,10.283671 L1.3314435,10.283671 C1.48569857,10.4893445 1.63995363,10.6950179 1.7942087,10.8492729 Z"></path>
                        <path d="M2.77115744,11.6719666 L9.76405375,11.6719666 C9.96972717,11.5691299 10.1239822,11.4148749 10.2782373,11.2606198 L2.25697389,11.2606198 C2.41122896,11.4148749 2.56548402,11.5177116 2.77115744,11.6719666 Z"></path>
                        <path d="M3.74810619,12.1861502 C4.51938152,12.5460787 5.39349356,12.7517521 6.2676056,12.7517521 C7.19313599,12.7517521 8.01582967,12.5460787 8.787105,12.1861502 L3.74810619,12.1861502 Z"></path>
                    </g>
                    <path d="M25.9662694,13.0602622 L16.4538737,13.0602622 C16.4538737,13.0602622 15.5797616,13.0602622 14.8599046,13.5230274 C14.2943027,13.8829559 13.9343743,14.7570679 13.9343743,14.8084863 L13.9343743,14.8084863 C13.9343743,14.7570679 13.5230274,13.8829559 13.0088439,13.5230274 C12.2889869,13.0602622 11.4148749,13.0602622 11.4148749,13.0602622 L1.90247914,13.0602622 L-4.56686735e-16,16.0939452 L8.68970203,16.0939452 C8.68970203,16.0939452 8.9467938,16.0939452 9.10104887,16.1453635 C9.35814064,16.1967819 9.82090584,16.2996186 10.283671,16.6595471 C10.9521097,17.1223123 11.1063647,17.3794041 11.2606198,17.5336591 C11.3634565,17.6364958 11.5691299,17.8935876 11.5691299,17.8935876 L13.6772825,17.8935876 L13.9343743,17.8935876 L13.9343743,17.8935876 L14.6542312,17.8935876 L16.2996186,17.8935876 C16.2996186,17.8935876 16.505292,17.6364958 16.6081287,17.5336591 C16.7623838,17.3794041 16.9680572,17.1223123 17.5850775,16.6595471 C18.0478427,16.2996186 18.5106079,16.1967819 18.7676996,16.1453635 C18.9219547,16.0939452 19.1790465,16.0939452 19.1790465,16.0939452 L27.8687485,16.0939452 L25.9662694,13.0602622 Z" id="路径"></path>
                    <g transform="translate(0.976949, 17.019476)" id="路径">
                        <g transform="translate(0.000000, 0.000000)">
                            <path d="M-4.56686735e-16,0 L-4.56686735e-16,14.2428844 C-4.56686735e-16,14.2428844 -4.56686735e-16,14.3971395 -4.56686735e-16,14.4485578 C-4.56686735e-16,14.6028129 -4.56686735e-16,14.7570679 -4.56686735e-16,14.8599046 C0.154255066,16.4024553 0.617020262,17.5336591 1.54255066,18.9733731 C2.93084625,21.287199 5.45034565,22.9325864 5.45034565,22.9325864 L6.63296782,21.0301073 C6.63296782,21.0301073 5.03899881,20.1559952 3.70212157,18.2020977 C3.4450298,17.7907509 3.18793802,17.4308224 2.9822646,17.0708939 C2.82800954,16.7109654 2.67375447,16.4538737 2.57091776,16.1453635 C2.5194994,15.9396901 2.41666269,15.7340167 2.41666269,15.5283433 C2.36524434,15.2712515 2.31382598,15.0655781 2.31382598,14.8084863 C2.31382598,14.7056496 2.31382598,14.3457211 2.31382598,14.3457211 L2.31382598,14.2943027 L2.31382598,0 L-4.56686735e-16,0 Z"></path>
                            <path d="M3.59928486,0 L3.59928486,14.3457211 C3.59928486,14.3457211 3.59928486,14.3971395 3.59928486,14.4485578 C3.59928486,14.4999762 3.59928486,14.6028129 3.59928486,14.7056496 C3.59928486,14.7570679 3.59928486,14.8084863 3.59928486,14.8599046 C3.65070322,15.0655781 3.70212157,15.2712515 3.80495828,15.5797616 C3.95921335,16.0425268 4.26772348,16.6595471 4.67907032,17.3279857 C5.75885578,19.0247914 7.30140644,19.8474851 7.30140644,19.8474851 L8.48402861,17.9964243 C8.48402861,17.9964243 8.07268176,17.7907509 7.60991657,17.3279857 C7.30140644,17.0194756 6.89005959,16.6081287 6.58154946,16.1453635 C6.27303933,15.6825983 6.06736591,15.1684148 5.9645292,14.8084863 C5.86169249,14.4999762 5.86169249,14.2428844 5.86169249,14.0886293 C5.86169249,13.9343743 5.86169249,13.8829559 5.86169249,13.8829559 L5.86169249,0 L3.59928486,0 L3.59928486,0 Z"></path>
                        </g>
                        <g transform="translate(17.430822, 0.000000)">
                            <path d="M8.48402861,0 L8.48402861,14.2428844 C8.48402861,14.2428844 8.48402861,14.3971395 8.48402861,14.4485578 C8.48402861,14.6028129 8.48402861,14.7570679 8.48402861,14.8599046 C8.32977354,16.4024553 7.86700834,17.5336591 6.94147795,18.9733731 C5.55318236,21.287199 3.03368296,22.9325864 3.03368296,22.9325864 L1.85106079,21.0301073 C1.85106079,21.0301073 3.4450298,20.1559952 4.78190703,18.2020977 C5.03899881,17.7907509 5.29609058,17.4308224 5.501764,17.0708939 C5.65601907,16.7109654 5.81027414,16.4538737 5.91311085,16.1453635 C5.9645292,15.9396901 6.06736591,15.7340167 6.06736591,15.5283433 C6.11878427,15.2712515 6.17020262,15.0655781 6.17020262,14.8084863 C6.17020262,14.7056496 6.17020262,14.3457211 6.17020262,14.3457211 L6.17020262,14.2943027 L6.17020262,0 L8.48402861,0 Z"></path>
                            <path d="M4.88474374,0 L4.88474374,14.3457211 C4.88474374,14.3457211 4.88474374,14.3971395 4.88474374,14.4485578 C4.88474374,14.4999762 4.88474374,14.6028129 4.88474374,14.7056496 C4.88474374,14.7570679 4.88474374,14.8084863 4.88474374,14.8599046 C4.83332539,15.0655781 4.78190703,15.2712515 4.67907032,15.5797616 C4.52481526,16.0425268 4.21630513,16.6595471 3.80495828,17.3279857 C2.72517282,19.0247914 1.18262217,19.8474851 1.18262217,19.8474851 L0,17.9964243 C0,17.9964243 0.411346841,17.7907509 0.874112038,17.3279857 C1.18262217,17.0194756 1.59396901,16.6081287 1.90247914,16.1453635 C2.21098927,15.6825983 2.41666269,15.1684148 2.5194994,14.8084863 C2.62233611,14.4999762 2.62233611,14.2428844 2.62233611,14.0886293 C2.62233611,13.9343743 2.62233611,13.8829559 2.62233611,13.8829559 L2.62233611,0 L4.88474374,0 L4.88474374,0 Z"></path>
                        </g>
                    </g>
                </g>
                <g id="编组" transform="translate(35.581502, 16.042527)">
                    <path d="M17.4822408,11.3634565 L17.4822408,20.6701788 L15.4769249,20.6701788 L15.4769249,19.6418117 L4.88474374,19.6418117 L4.88474374,20.6701788 L2.87942789,20.6701788 L2.87942789,11.4148749 C2.5194994,11.5691299 1.90247914,11.7748033 1.0283671,12.0833135 L0,10.1808343 C2.62233611,9.56381406 4.88474374,8.43261025 6.83864124,6.78722288 L0.154255066,6.78722288 L0.154255066,4.98758045 L8.99821216,4.98758045 L8.99821216,3.23935638 C5.75885578,3.29077473 3.4450298,3.39361144 2.05673421,3.39361144 L1.33687723,1.38829559 C2.15957092,1.38829559 3.18793802,1.43971395 4.37056019,1.43971395 C10.0779976,1.43971395 14.4485578,1.07978546 17.3794041,0.411346841 L18.3049344,2.15957092 C16.3510369,2.57091776 13.9343743,2.87942789 11.0549464,3.13651967 L11.0549464,4.98758045 L20.1559952,4.98758045 L20.1559952,6.78722288 L13.2659356,6.78722288 C14.911323,8.3811919 17.2765673,9.46097735 20.3616687,10.0779976 L19.3847199,12.0318951 C19.0762098,11.87764 18.7676996,11.8262217 18.4077712,11.6719666 C18.099261,11.6205483 17.7907509,11.5177116 17.4822408,11.3634565 Z M4.16488677,10.8492729 L9.04963051,10.8492729 L9.04963051,6.89005959 C7.81558999,8.63828367 6.17020262,9.97516091 4.16488677,10.8492729 Z M15.5283433,12.6489154 L4.9361621,12.6489154 L4.9361621,14.2943027 L15.5283433,14.2943027 L15.5283433,12.6489154 L15.5283433,12.6489154 Z M4.9361621,17.8935876 L15.5283433,17.8935876 L15.5283433,15.9911085 L4.9361621,15.9911085 L4.9361621,17.8935876 Z M11.1063647,6.83864124 L11.1063647,10.7978546 L16.4024553,10.7978546 C14.191466,9.97516091 12.443242,8.63828367 11.1063647,6.83864124 Z" id="形状"></path>
                    <path d="M31.0566865,13.9857926 C30.4910846,16.2996186 29.5655542,18.4591895 28.3315137,20.3616687 L26.634708,18.6134446 C27.8687485,16.8138021 28.7428605,14.911323 29.2056257,12.8545888 L31.0566865,13.9857926 Z M29.7712277,10.5407628 C28.5886055,9.51239571 27.6116567,8.79253874 26.7375447,8.22693683 L28.0230036,6.63296782 C29.0513707,7.19856973 30.0797378,7.86700834 31.2109416,8.68970203 L29.7712277,10.5407628 Z M31.8279619,2.87942789 L34.7073897,2.87942789 L34.7073897,0.617020262 L36.7127056,0.617020262 L36.7127056,2.82800954 L40.6205006,2.82800954 L40.6205006,0.617020262 L42.5229797,0.617020262 L42.5229797,2.82800954 L46.0708462,2.82800954 L46.0708462,4.52481526 L42.4715614,4.52481526 L42.4715614,6.73580453 L46.327938,6.73580453 L46.327938,8.58686532 L42.2144696,8.58686532 C42.7800715,9.76948749 44.2712038,10.9006913 46.5336114,12.0318951 L45.608081,13.9343743 C44.2712038,13.1116806 43.1914184,12.3404052 42.3687247,11.5691299 L42.3687247,15.9911085 L35.4786651,15.9911085 L35.4786651,17.3794041 C35.4786651,17.8935876 35.6843385,18.1506794 36.2499404,18.1506794 L42.6258164,18.1506794 C43.2428367,18.1506794 43.6027652,17.945006 43.7056019,17.4822408 C43.8084386,17.0194756 43.9112753,16.2482002 44.014112,15.0655781 L46.0708462,15.8368534 C45.8651728,17.8421692 45.5566627,19.0247914 45.1453159,19.4361383 C44.7853874,19.8474851 44.0655304,20.0017402 42.9343266,20.0017402 L35.9928486,20.0017402 C35.0673182,20.0017402 34.450298,19.7960667 34.0903695,19.4875566 C33.730441,19.1276281 33.5761859,18.4591895 33.5761859,17.4822408 L33.5761859,12.6489154 C33.2162574,12.9574255 32.5478188,13.4201907 31.5708701,13.9857926 L30.3368296,12.1347318 C32.7020739,11.0549464 34.2446246,9.8723242 34.8616448,8.48402861 L31.416615,8.48402861 L31.416615,6.63296782 L34.7073897,6.63296782 L34.7073897,4.4733969 L31.8279619,4.4733969 L31.8279619,3.29077473 L30.4910846,4.9361621 C29.3084625,3.85637664 28.2800954,3.03368296 27.2517282,2.41666269 L28.6914422,0.822693683 C29.9254827,1.59396901 30.9024315,2.31382598 31.7765435,2.93084625 L31.8279619,2.87942789 L31.8279619,2.87942789 Z M35.4786651,12.1861502 L35.4786651,14.2943027 L40.4148272,14.2943027 L40.4148272,12.1861502 L35.4786651,12.1861502 Z M37.1240524,8.53544696 C36.8155423,9.25530393 36.4041955,9.92374255 35.8900119,10.4379261 L41.3917759,10.4379261 C40.9290107,9.92374255 40.4662455,9.25530393 40.0548987,8.53544696 L37.1240524,8.53544696 Z M36.6612872,4.67907032 L36.6612872,6.78722288 L40.5690822,6.78722288 L40.5690822,4.67907032 L36.6612872,4.67907032 Z" id="形状"></path>
                    <path d="M56.6116091,3.54786651 C55.8403337,3.70212157 54.7605483,3.80495828 53.269416,3.90779499 L52.8066508,2.05673421 C56.0460072,1.90247914 58.77118,1.38829559 61.085006,0.514183552 L61.8048629,2.26240763 C60.7764958,2.62233611 59.6967104,2.93084625 58.5655066,3.13651967 L58.5655066,6.17020262 L61.8048629,6.17020262 L61.8048629,8.02126341 L58.5655066,8.02126341 L58.5655066,8.22693683 C60.1594756,9.71806913 61.3935161,10.9006913 62.2162098,11.7748033 L60.9821692,13.6258641 C60.5708224,13.0088439 60.1080572,12.443242 59.6967104,11.9804768 C59.3367819,11.5177116 58.925435,11.0549464 58.5655066,10.5407628 L58.5655066,20.5159237 L56.5601907,20.5673421 L56.5601907,11.7748033 C55.9945888,13.1630989 55.01764,14.7570679 53.6293445,16.6081287 L52.3953039,14.7056496 C54.2463647,12.6489154 55.5318236,10.4379261 56.457354,8.07268176 L52.549559,8.07268176 L52.549559,6.22162098 L56.5601907,6.22162098 L56.6116091,3.54786651 L56.6116091,3.54786651 Z M61.5991895,15.8882718 L61.5991895,13.8829559 L68.7977592,12.8031704 L68.7977592,0.462765197 L70.8030751,0.462765197 L70.8030751,12.597497 L72.7055542,12.2889869 L72.7055542,14.2428844 L70.8030751,14.5513945 L70.8030751,20.7215971 L68.7977592,20.7215971 L68.7977592,14.7570679 L61.5991895,15.8882718 Z M66.2782598,11.5177116 C64.7871275,10.283671 63.5016687,9.30672229 62.3704648,8.63828367 L63.6045054,7.19856973 C64.6842908,7.76417163 66.0211681,8.63828367 67.5637187,9.82090584 L66.2782598,11.5177116 Z M66.6381883,6.27303933 C65.0442193,5.03899881 63.7587604,4.06205006 62.7818117,3.4450298 L64.0672706,2.00531585 C64.992801,2.5194994 66.2782598,3.39361144 67.9750656,4.62765197 L66.6381883,6.27303933 Z" id="形状"></path>
                    <path d="M90.5991418,8.12410012 C90.9590703,9.8723242 91.6789273,11.723385 92.9129678,13.6258641 C94.1470083,15.5283433 95.7923957,17.225149 97.9519666,18.6134446 L96.3065793,20.6187604 C92.4502026,18.099261 89.7764482,13.9343743 88.3881526,8.12410012 L88.0282241,8.12410012 C87.0512753,13.317354 84.1718474,17.4822408 79.3385221,20.6187604 L77.6931347,18.5620262 C79.7498689,17.3794041 81.498093,15.8882718 82.9378069,13.9857926 C84.3775209,12.0833135 85.3030513,10.129416 85.6115614,8.12410012 L78.2073182,8.12410012 L78.2073182,5.86169249 L86.0229082,5.86169249 C86.2285816,4.57623361 86.3314184,2.77659118 86.3314184,0.462765197 L88.593826,0.462765197 C88.593826,2.93084625 88.5424076,4.73048868 88.3881526,5.86169249 L97.4892014,5.86169249 L97.4892014,8.12410012 L90.5991418,8.12410012 Z" id="路径"></path>
                    <g transform="translate(107.618617, -0.000000)">
                        <path d="M5.39892729,0.257091776 C4.4733969,2.05673421 3.75353993,3.54786651 3.34219309,4.67907032 C2.67375447,6.58154946 2.36524434,8.58686532 2.36524434,10.6950179 C2.36524434,14.037211 3.34219309,17.4822408 5.34750894,21.0301073 L3.75353993,21.0301073 C2.67375447,19.5903933 1.74822408,17.945006 1.0283671,16.0939452 C0.359928486,14.2428844 -2.9227951e-14,12.443242 -2.9227951e-14,10.6435995 C-2.9227951e-14,8.17551847 0.617020262,5.75885578 1.90247914,3.34219309 C2.57091776,2.05673421 3.18793802,1.07978546 3.80495828,0.308510131 L5.39892729,0.308510131 L5.39892729,0.257091776 Z" id="路径"></path>
                        <path d="M13.9343743,3.13651967 L13.9343743,7.09573302 C13.9343743,13.2145173 13.2145173,17.6364958 11.8262217,20.4645054 L10.3350894,18.819118 C11.4662932,16.2482002 12.0318951,12.1861502 12.0318951,6.68438617 L12.0318951,1.4911323 L20.9786889,1.4911323 C20.8758522,1.33687723 20.6701788,0.874112038 20.3616687,0.257091776 L22.4184029,0 C22.6240763,0.359928486 22.9325864,0.874112038 23.1896782,1.4911323 L30.696758,1.4911323 L30.696758,3.13651967 L13.9343743,3.13651967 Z M19.9503218,17.5850775 L21.132944,18.9219547 C19.5903933,19.6418117 17.4822408,20.2074136 14.7056496,20.6187604 L13.7801192,18.9219547 C16.4024553,18.7676996 18.4591895,18.3049344 19.9503218,17.5850775 Z M24.4751371,17.5850775 L15.7340167,17.5850775 L15.7340167,10.4893445 L21.5957092,10.4893445 L21.5957092,9.46097735 L14.6028129,9.46097735 L14.6028129,7.96984505 L30.542503,7.96984505 L30.542503,9.46097735 L23.44677,9.46097735 L23.44677,10.4893445 L29.3084625,10.4893445 L29.3084625,17.5850775 L24.4751371,17.5850775 C27.2003099,18.2535161 29.1542074,18.7676996 30.3368296,19.0247914 L29.3084625,20.6187604 C28.4343504,20.3616687 27.5602384,20.1045769 26.5832896,19.7960667 C25.5035042,19.4875566 24.4751371,19.1790465 23.4981883,18.8705364 L24.4751371,17.5850775 Z M21.5957092,13.317354 L21.5957092,11.87764 L17.5850775,11.87764 L17.5850775,13.317354 L21.5957092,13.317354 Z M21.5957092,16.1453635 L21.5957092,14.6542312 L17.5850775,14.6542312 L17.5850775,16.1453635 L21.5957092,16.1453635 Z M27.4574017,13.317354 L27.4574017,11.87764 L23.44677,11.87764 L23.44677,13.317354 L27.4574017,13.317354 Z M27.4574017,16.1453635 L27.4574017,14.6542312 L23.44677,14.6542312 L23.44677,16.1453635 L27.4574017,16.1453635 Z" id="形状"></path>
                        <path d="M41.1346841,5.55318236 C40.9804291,7.71275328 40.5690822,9.92374255 39.8492253,12.1861502 L37.7924911,11.3634565 C38.5637664,9.56381406 39.0265316,7.50707986 39.1293683,5.09041716 L41.1346841,5.55318236 Z M39.952062,20.2588319 L38.1010012,18.5106079 C39.4378784,17.5850775 40.4148272,16.4024553 41.1346841,14.9627414 C41.8545411,13.5230274 42.2144696,11.2606198 42.2144696,8.22693683 L42.2144696,0.514183552 L44.3740405,0.514183552 L44.3740405,9.66665077 C44.3226222,14.2428844 42.8829082,17.7393325 39.952062,20.2588319 Z M46.173683,12.1861502 C45.7109178,9.46097735 45.1453159,7.35282479 44.4768772,5.9645292 L46.3793564,5.24467223 C47.1506317,7.35282479 47.767652,9.46097735 48.2304172,11.6719666 L46.173683,12.1861502 Z M48.641764,0.719856973 L50.6984982,0.719856973 L50.6984982,19.9503218 L48.641764,19.9503218 L48.641764,0.719856973 Z M53.0123242,11.9804768 C52.8066508,10.0779976 52.1382122,8.02126341 51.1098451,5.81027414 L53.0123242,5.09041716 C53.9892729,7.35282479 54.7091299,9.46097735 55.1718951,11.3634565 L53.0123242,11.9804768 Z M55.5318236,0.257091776 L57.6913945,0.257091776 L57.6913945,20.6701788 L55.5318236,20.6701788 L55.5318236,0.257091776 Z" id="形状"></path>
                        <path d="M68.9520143,10.6435995 C68.9520143,13.1116806 68.334994,15.5283433 67.0495352,17.945006 C66.4325149,19.1276281 65.8154946,20.1559952 65.147056,20.9786889 L63.6045054,20.9786889 C64.5814541,19.1790465 65.2498927,17.7393325 65.6612396,16.6081287 C66.3296782,14.7056496 66.6381883,12.7003337 66.6381883,10.5921812 C66.6381883,7.24998808 65.6612396,3.80495828 63.6559237,0.257091776 L65.2498927,0.257091776 C66.3296782,1.69680572 67.2037902,3.34219309 67.9236472,5.24467223 C68.5920858,7.09573302 68.9520143,8.89537545 68.9520143,10.6435995 Z" id="路径"></path>
                        <polygon id="路径" points="20.1045769 8.63828367 20.1045769 6.58154946 25.040739 6.58154946 25.040739 8.63828367 26.9946365 8.63828367 26.9946365 6.58154946 29.822646 6.58154946 29.822646 5.09041716 26.9946365 5.09041716 26.9946365 3.65070322 25.040739 3.65070322 25.040739 5.09041716 20.1045769 5.09041716 20.1045769 3.65070322 18.1506794 3.65070322 18.1506794 5.09041716 15.1169964 5.09041716 15.1169964 6.58154946 18.1506794 6.58154946 18.1506794 8.63828367"></polygon>
                    </g>
                </g>
            </g>
        </g>
    </g>
</svg>