<?xml version="1.0" encoding="UTF-8"?>
<svg width="200px" height="44px" viewBox="0 0 200 44" version="1.1" xmlns="http://www.w3.org/2000/svg" xmlns:xlink="http://www.w3.org/1999/xlink">
    <title>in_UST-GZ_white_en_L1</title>
    <g id="页面-1" stroke="none" stroke-width="1" fill="none" fill-rule="evenodd">
        <g id="NEW-STAFF-ORIENTATION3备份-7" transform="translate(-230.000000, -1397.000000)" fill="#FFFFFF">
            <g id="Footer" transform="translate(0.000000, 1377.000000)">
                <g id="in_UST-GZ_white_en_L1" transform="translate(230.000000, 20.000000)">
                    <g id="编组" fill-rule="nonzero">
                        <path d="M21.6598769,43.1417647 L16.6535846,34.8 C16.6535846,34.8 16.5003308,34.5952941 16.5003308,34.2882353 L16.5003308,34.0835294 L16.5003308,33.6741176 L16.5003308,18.7817647 L14.6102,18.7817647 L14.6102,34.2882353 L14.6102,34.7488235 C14.7634538,34.9023529 17.9307,40.2758824 17.9307,40.2758824 L10.0636692,40.2758824 C10.0636692,40.2758824 13.2309154,34.9023529 13.3841692,34.7488235 L13.3841692,34.2882353 L13.3841692,18.7817647 L11.4940385,18.7817647 L11.4940385,33.6741176 L11.4940385,34.0835294 L11.4940385,34.2882353 C11.4940385,34.5952941 11.3407846,34.8 11.3407846,34.8 L6.33449231,43.1417647 L21.6598769,43.1417647 L21.6598769,43.1417647 Z" id="路径"></path>
                        <g transform="translate(7.662692, 0.000000)" id="路径">
                            <path d="M12.4135615,7.93235294 C12.4135615,7.93235294 13.3330846,4.04294118 10.0125846,1.48411765 C10.0125846,1.48411765 8.68438462,0.255882353 6.13015385,0.255882353 C3.83134615,0.255882353 2.50314615,1.48411765 2.50314615,1.48411765 C-0.613015385,3.63352941 0.204338462,7.93235294 0.204338462,7.93235294 L12.4135615,7.93235294 Z"></path>
                            <path d="M0.561930769,9.00705882 L12.0559692,9.00705882 C12.1581385,8.80235294 12.2092231,8.54647059 12.3113923,8.34176471 L0.306507692,8.34176471 C0.408676923,8.54647059 0.459761538,8.75117647 0.561930769,9.00705882 Z"></path>
                            <path d="M11.9027154,9.41647059 L0.766269231,9.41647059 C0.868438462,9.67235294 1.02169231,9.87705882 1.17494615,10.0817647 L11.5451231,10.0817647 C11.6472923,9.87705882 11.8005462,9.62117647 11.9027154,9.41647059 Z"></path>
                            <path d="M1.89013077,11.0029412 L10.7277692,11.0029412 C10.8810231,10.8494118 11.0342769,10.6447059 11.1875308,10.44 L1.43036923,10.44 C1.58362308,10.6447059 1.73687692,10.8494118 1.89013077,11.0029412 Z"></path>
                            <path d="M2.86073846,11.8217647 L9.80824615,11.8217647 C10.0125846,11.7194118 10.1658385,11.5658824 10.3190923,11.4123529 L2.29880769,11.4123529 C2.50314615,11.5658824 2.6564,11.7194118 2.86073846,11.8217647 Z"></path>
                            <path d="M3.78026154,12.3847059 C4.54653077,12.7429412 5.41496923,12.9476471 6.28340769,12.9476471 C7.20293077,12.9476471 8.02028462,12.7429412 8.78655385,12.3847059 L3.78026154,12.3847059 Z"></path>
                        </g>
                        <path d="M25.8999,13.2035294 L16.5003308,13.2035294 C16.5003308,13.2035294 15.6318923,13.2035294 14.9167077,13.6641176 C14.3547769,14.0223529 13.9971846,14.8923529 13.9971846,14.9435294 L13.9971846,14.9435294 C13.9971846,14.8923529 13.5885077,14.0223529 13.0776615,13.6641176 C12.3624769,13.2035294 11.4940385,13.2035294 11.4940385,13.2035294 L2.04338462,13.2035294 L0.153253846,16.2229412 L8.78655385,16.2229412 C8.78655385,16.2229412 9.04197692,16.2229412 9.19523077,16.2741176 C9.45065385,16.3252941 9.91041538,16.4276471 10.3701769,16.7858824 C11.0342769,17.2464706 11.1875308,17.5023529 11.3407846,17.6558824 C11.4429538,17.7582353 11.6472923,18.0141176 11.6472923,18.0141176 L13.7417615,18.0141176 L13.9971846,18.0141176 L13.9971846,18.0141176 L14.7123692,18.0141176 L16.3470769,18.0141176 C16.3470769,18.0141176 16.5514154,17.7582353 16.6535846,17.6558824 C16.8068385,17.5023529 17.0111769,17.2464706 17.6241923,16.7858824 C18.0839538,16.4276471 18.5437154,16.3252941 18.7991385,16.2741176 C18.9523923,16.2229412 19.2078154,16.2229412 19.2078154,16.2229412 L27.8411154,16.2229412 L25.8999,13.2035294 Z" id="路径"></path>
                        <g transform="translate(1.021692, 16.888235)" id="路径">
                            <g>
                                <path d="M0.102169231,0.255882353 L0.102169231,14.4317647 C0.102169231,14.4317647 0.102169231,14.5852941 0.102169231,14.6364706 C0.102169231,14.79 0.102169231,14.9435294 0.102169231,15.0458824 C0.255423077,16.5811765 0.715184615,17.7070588 1.63470769,19.14 C3.01399231,21.4429412 5.51713846,23.0805882 5.51713846,23.0805882 L6.69208462,21.1870588 C6.69208462,21.1870588 5.10846154,20.3170588 3.78026154,18.3723529 C3.52483846,17.9629412 3.26941538,17.6047059 3.06507692,17.2464706 C2.91182308,16.8882353 2.75856923,16.6323529 2.6564,16.3252941 C2.60531538,16.1205882 2.50314615,15.9158824 2.50314615,15.7111765 C2.45206154,15.4552941 2.40097692,15.2505882 2.40097692,14.9947059 C2.40097692,14.8923529 2.40097692,14.5341176 2.40097692,14.5341176 L2.40097692,14.4829412 L2.40097692,0.255882353 L0.102169231,0.255882353 Z"></path>
                                <path d="M3.67809231,0.255882353 L3.67809231,14.5341176 C3.67809231,14.5341176 3.67809231,14.5852941 3.67809231,14.6364706 C3.67809231,14.6876471 3.67809231,14.79 3.67809231,14.8923529 C3.67809231,14.9435294 3.67809231,14.9947059 3.67809231,15.0458824 C3.72917692,15.2505882 3.78026154,15.4552941 3.88243077,15.7623529 C4.03568462,16.2229412 4.34219231,16.8370588 4.75086923,17.5023529 C5.82364615,19.1911765 7.35618462,20.01 7.35618462,20.01 L8.53113077,18.1676471 C8.53113077,18.1676471 8.12245385,17.9629412 7.66269231,17.5023529 C7.35618462,17.1952941 6.94750769,16.7858824 6.641,16.3252941 C6.33449231,15.8647059 6.13015385,15.3529412 6.02798462,14.9947059 C5.92581538,14.6876471 5.92581538,14.4317647 5.92581538,14.2782353 C5.92581538,14.1247059 5.92581538,14.0735294 5.92581538,14.0735294 L5.92581538,0.255882353 L3.67809231,0.255882353 L3.67809231,0.255882353 Z"></path>
                            </g>
                            <g transform="translate(17.368769, 0.000000)">
                                <path d="M8.48004615,0.255882353 L8.48004615,14.4317647 C8.48004615,14.4317647 8.48004615,14.5852941 8.48004615,14.6364706 C8.48004615,14.79 8.48004615,14.9435294 8.48004615,15.0458824 C8.32679231,16.5811765 7.86703077,17.7070588 6.94750769,19.14 C5.56822308,21.4429412 3.06507692,23.0805882 3.06507692,23.0805882 L1.89013077,21.1870588 C1.89013077,21.1870588 3.47375385,20.3170588 4.80195385,18.3723529 C5.05737692,17.9629412 5.3128,17.6047059 5.51713846,17.2464706 C5.67039231,16.8882353 5.82364615,16.6323529 5.92581538,16.3252941 C5.9769,16.1205882 6.07906923,15.9158824 6.07906923,15.7111765 C6.13015385,15.4552941 6.18123846,15.2505882 6.18123846,14.9947059 C6.18123846,14.8923529 6.18123846,14.5341176 6.18123846,14.5341176 L6.18123846,14.4829412 L6.18123846,0.255882353 L8.48004615,0.255882353 Z"></path>
                                <path d="M4.85303846,0.255882353 L4.85303846,14.5341176 C4.85303846,14.5341176 4.85303846,14.5852941 4.85303846,14.6364706 C4.85303846,14.6876471 4.85303846,14.79 4.85303846,14.8923529 C4.85303846,14.9435294 4.85303846,14.9947059 4.85303846,15.0458824 C4.80195385,15.2505882 4.75086923,15.4552941 4.6487,15.7623529 C4.49544615,16.2229412 4.18893846,16.8370588 3.78026154,17.5023529 C2.70748462,19.1911765 1.17494615,20.01 1.17494615,20.01 L0,18.1676471 C0,18.1676471 0.408676923,17.9629412 0.868438462,17.5023529 C1.17494615,17.1952941 1.58362308,16.7858824 1.89013077,16.3252941 C2.19663846,15.8647059 2.40097692,15.3529412 2.50314615,14.9947059 C2.60531538,14.6876471 2.60531538,14.4317647 2.60531538,14.2782353 C2.60531538,14.1247059 2.60531538,14.0735294 2.60531538,14.0735294 L2.60531538,0.255882353 L4.85303846,0.255882353 Z"></path>
                            </g>
                        </g>
                    </g>
                    <polygon id="路径" points="47.4576077 24.9229412 47.4576077 17.5535294 49.9607538 17.5535294 49.9607538 35.7211765 47.4576077 35.7211765 47.4576077 27.0211765 37.9558692 27.0211765 37.9558692 35.7211765 35.5038077 35.7211765 35.5038077 17.5535294 37.9558692 17.5535294 37.9558692 24.8717647 47.4576077 24.8717647"></polygon>
                    <polygon id="路径" points="69.9348385 17.5535294 73.1531692 17.5535294 64.2644462 25.7417647 73.3064231 35.7211765 69.9859231 35.7211765 62.5275692 27.2770588 61.5058769 28.1470588 61.5058769 35.7723529 59.0538154 35.7723529 59.0538154 17.5535294 61.5058769 17.5535294 61.5058769 25.4347059 69.9348385 17.5535294"></polygon>
                    <path d="M81.6843,17.5535294 L81.6843,28.2494118 C81.6843,31.1664706 82.6549077,33.93 86.4862538,33.93 C90.3176,33.93 91.2882077,31.2176471 91.2882077,28.2494118 L91.2882077,17.5535294 L93.7913538,17.5535294 L93.7913538,28.9658824 C93.7913538,32.9576471 91.0838692,35.9770588 86.5373385,35.9770588 C81.9908077,35.9770588 79.2833231,32.9576471 79.2833231,28.9658824 L79.2833231,17.5535294 L81.6843,17.5535294 L81.6843,17.5535294 L81.6843,17.5535294 Z" id="路径"></path>
                    <path d="M111.109038,21.0335294 C110.393854,19.9076471 109.423246,19.3447059 107.890708,19.3447059 C106.307085,19.3447059 104.570208,20.3170588 104.570208,21.9035294 C104.570208,23.3364706 106.102746,24.0529412 107.328777,24.5135294 L108.759146,25.0252941 C111.5688,26.0488235 113.714354,27.4305882 113.714354,30.45 C113.714354,33.7252941 110.9047,36.0794118 107.328777,36.0794118 C104.110446,36.0794118 101.556215,33.93 101.147538,31.0129412 L103.650685,30.5523529 C103.650685,32.5482353 105.336477,33.9811765 107.482031,33.9811765 C109.627585,33.9811765 111.160123,32.3435294 111.160123,30.45 C111.160123,28.5052941 109.474331,27.6864706 107.737454,27.0211765 L106.358169,26.5094118 C104.110446,25.6394118 102.067062,24.4623529 102.067062,21.9035294 C102.067062,18.9864706 104.9278,17.2464706 107.941792,17.2464706 C110.138431,17.2464706 111.977477,18.2188235 113.101338,19.9588235 L111.109038,21.0335294 L111.109038,21.0335294 L111.109038,21.0335294 Z" id="路径"></path>
                    <polygon id="路径" points="128.222385 35.7723529 125.770323 35.7723529 125.770323 19.7029412 121.019454 19.7029412 121.019454 17.6558824 132.973254 17.6558824 132.973254 19.7029412 128.273469 19.7029412 128.222385 35.7723529 128.222385 35.7723529"></polygon>
                    <path d="M170.6737,26.6117647 L170.6737,27.3282353 C170.6737,32.2923529 167.148862,36.1817647 162.091485,36.1817647 C157.034108,36.1817647 152.947338,31.8317647 152.947338,26.7141176 C152.947338,21.4941176 157.136277,17.1952941 162.397992,17.1952941 C165.207646,17.1952941 167.966215,18.4747059 169.754177,20.7264706 L168.170554,22.2617647 C166.893438,20.4705882 164.6968,19.2935294 162.500162,19.2935294 C158.464477,19.2935294 155.297231,22.5688235 155.297231,26.7141176 C155.297231,30.5011765 158.413392,34.1858824 162.346908,34.1858824 C165.156562,34.1858824 168.170554,31.7805882 168.272723,28.8123529 L163.470769,28.8123529 L163.470769,26.7652941 L170.6737,26.7652941 L170.6737,26.6117647 L170.6737,26.6117647 Z" id="路径"></path>
                    <polygon id="路径" points="188.348977 33.7252941 188.348977 35.7723529 175.526738 35.7723529 184.670885 19.7029412 176.803854 19.7029412 176.803854 17.6558824 188.348977 17.6558824 179.204831 33.7764706 188.348977 33.7764706"></polygon>
                    <path d="M147.838877,15.9670588 C146.868269,17.8094118 146.153085,19.3447059 145.744408,20.5217647 C145.080308,22.5176471 144.722715,24.5647059 144.722715,26.6629412 C144.722715,30.0917647 145.744408,33.6229412 147.838877,37.3076471 L146.102,37.3076471 C144.978138,35.8235294 144.058615,34.1347059 143.292346,32.19 C142.577162,30.2964706 142.219569,28.4029412 142.219569,26.5605882 C142.219569,24.0017647 142.883669,21.5452941 144.160785,19.0376471 C144.824885,17.7070588 145.488985,16.6835294 146.102,15.9158824 L147.736708,15.9158824 L147.736708,15.9670588 L147.838877,15.9670588 Z" id="路径"></path>
                    <path d="M199.076746,26.7141176 C199.076746,29.2217647 198.412646,31.7294118 197.135531,34.2882353 C196.522515,35.5164706 195.858415,36.54 195.194315,37.41 L193.559608,37.41 C194.530215,35.5676471 195.2454,34.0835294 195.654077,32.9064706 C196.318177,30.9105882 196.675769,28.8635294 196.675769,26.7141176 C196.675769,23.2852941 195.654077,19.7541176 193.559608,16.0182353 L195.194315,16.0182353 C196.318177,17.5023529 197.2377,19.1911765 198.003969,21.1358824 C198.719154,23.0294118 199.076746,24.8717647 199.076746,26.7141176 L199.076746,26.7141176 Z" id="路径"></path>
                </g>
            </g>
        </g>
    </g>
</svg>