<?xml version="1.0" encoding="UTF-8"?>
<svg width="32px" height="32px" viewBox="0 0 32 32" version="1.1" xmlns="http://www.w3.org/2000/svg" xmlns:xlink="http://www.w3.org/1999/xlink">
    <title>Footer/Instagram</title>
    <g id="Footer/Instagram" stroke="none" stroke-width="1" fill="none" fill-rule="evenodd">
        <path d="M16,1 C20.1445535,1 23.89834,2.67758873 26.6061432,5.39359822 C29.3221253,8.10991064 31,11.8555561 31,15.9998485 C31,20.1444439 29.3221253,23.8903923 26.6061432,26.6064018 C23.89834,29.3221083 20.1445535,31 16,31 C11.8636253,31 8.10983885,29.3221083 5.39355386,26.6064018 C2.67757179,23.8903923 1,20.1444439 1,15.9998485 C1,11.8555561 2.67757179,8.10991064 5.39355386,5.39359822 C8.10983885,2.67758873 11.8636253,1 16,1 Z M16,2.1707982 C12.1877499,2.1707982 8.72446383,3.72418842 6.22446383,6.22421366 C3.72416091,8.72423891 2.1710893,12.179381 2.1710893,15.9998485 C2.1710893,19.820619 3.72416091,23.2757611 6.22446383,25.7839653 C8.72446383,28.2842934 12.1877499,29.8288989 16,29.8288989 C19.8204289,29.8288989 23.2755362,28.2842934 25.7840179,25.7839653 C28.2840179,23.2757611 29.8289107,19.820619 29.8289107,15.9998485 C29.8289107,12.179381 28.2840179,8.72423891 25.7840179,6.22421366 C23.2755362,3.72418842 19.8204289,2.1707982 16,2.1707982 Z M19.9703441,8.48356642 C21.9302375,8.48356642 23.5248092,10.0778513 23.5248092,12.0383703 L23.5248092,12.0383703 L23.5248092,19.9701116 C23.5248092,21.9215429 21.9302375,23.5246125 19.9703441,23.5246125 L19.9703441,23.5246125 L12.03838,23.5246125 C10.0863625,23.5246125 8.4833091,21.9215429 8.4833091,19.9701116 L8.4833091,19.9701116 L8.4833091,12.0383703 C8.4833091,10.0778513 10.0863625,8.48356642 12.03838,8.48356642 L12.03838,8.48356642 Z M19.9703441,9.37234311 L12.03838,9.37234311 C10.5680056,9.37234311 9.37207682,10.567981 9.37207682,12.0383703 L9.37207682,12.0383703 L9.37207682,19.9701116 C9.37207682,21.439895 10.5680056,22.6361387 12.03838,22.6361387 L12.03838,22.6361387 L19.9703441,22.6361387 C21.4404156,22.6361387 22.6363444,21.439895 22.6363444,19.9701116 L22.6363444,19.9701116 L22.6363444,12.0383703 C22.6363444,10.567981 21.4404156,9.37234311 19.9703441,9.37234311 L19.9703441,9.37234311 Z M15.9999697,11.1495936 C18.6829335,11.1495936 20.8503272,13.325491 20.8503272,16 C20.8503272,18.6826879 18.6829335,20.8504064 15.9999697,20.8504064 C13.3254877,20.8504064 11.1496123,18.6826879 11.1496123,16 C11.1496123,13.325491 13.3254877,11.1495936 15.9999697,11.1495936 Z M15.9999697,12.1543899 C13.881952,12.1543899 12.1625772,13.8819609 12.1625772,16 C12.1625772,18.126218 13.881952,19.8456101 15.9999697,19.8456101 C18.1264692,19.8456101 19.845541,18.126218 19.845541,16 C19.845541,13.8819609 18.1264692,12.1543899 15.9999697,12.1543899 Z M20.7591482,10.493159 C21.1911123,10.493159 21.5397734,10.8421265 21.5397734,11.2737921 C21.5397734,11.7060635 21.1911123,12.0547281 20.7591482,12.0547281 C20.3271841,12.0547281 19.978523,11.7060635 19.978523,11.2737921 C19.978523,10.8421265 20.3271841,10.493159 20.7591482,10.493159 Z" id="形状结合" fill="#FEFEFE"></path>
    </g>
</svg>