<svg xmlns="http://www.w3.org/2000/svg" viewBox="0 0 18.212 18.217"><defs><style>.a{opacity:0.7;}.b{fill:#fff;fill-rule:evenodd;}</style></defs><g class="a" transform="translate(0.065 -0.01)"><g transform="translate(-0.065 0.01)"><path class="b" d="M127.423,140.863s-.425-.22-.22,0a10.3,10.3,0,0,1,.687,1.015s.261.206.329.179.143-.248.143-.343S127.645,140.863,127.423,140.863Z" transform="translate(-118.037 -130.686)"/><path class="b" d="M150.276,137.1c0-.014-.1-.324-.293-.147s-.567.549-.727.573c-.038.006-.165.132-.115.233s.22.178.286.278a.422.422,0,0,0,.329.183c.143.009.193-.109.252-.261s.293-.311.224-.434-.127-.229-.068-.279A.386.386,0,0,0,150.276,137.1Z" transform="translate(-138.445 -127.094)"/><path class="b" d="M191.683,144.908c-.311-.137-.915-.358-.915-.358s-.22.22-.265.173-.339-.256-.393-.173.109.248.2.316.3.023.393.132a1.8,1.8,0,0,0,.385.4c.137.073.192.174.311.072s.173-.137.256-.1.246.183.411.256a.566.566,0,0,0,.347,0A2.932,2.932,0,0,0,191.683,144.908Z" transform="translate(-176.481 -134.182)"/><path class="b" d="M187.685,54.164a.674.674,0,0,0,.463-.111c.125-.082-.3-.493-.463-.493C187.685,53.563,187.5,54.146,187.685,54.164Z" transform="translate(-174.162 -49.725)"/><path class="b" d="M178.948,65.623a1.864,1.864,0,0,1,0,.3,1.013,1.013,0,0,1-.219.459c-.055.054-.583.418-.617.686s.13.3.473-.089.495-.254.632-.4S179.374,65.389,178.948,65.623Z" transform="translate(-165.348 -60.893)"/><path class="b" d="M14.89,2.139c-.2-.171-.415-.333-.634-.486A9.095,9.095,0,0,0,1.075,4.717c-.112.2-.215.41-.312.622-.075.164-.143.332-.215.5C.461,6.07.38,6.3.311,6.54a9.1,9.1,0,0,0,14.068,9.954q.183-.133.358-.275a9.095,9.095,0,0,0,.148-14.078ZM1.552,4.771h0c.252.091.751.265.59.407s-.269.258-.412.2a1.092,1.092,0,0,0-.43-.139Q1.418,5,1.552,4.771ZM1.229,6.693.747,6.615c.056-.187.119-.37.186-.552a.449.449,0,0,0,.108-.014c.358-.1.47-.077.511,0S1.638,6.634,1.229,6.693Zm13.949,8.545a2.546,2.546,0,0,1,.225-.312,1.3,1.3,0,0,0,.256-1.547,3.335,3.335,0,0,1-.522-1.317c-.037-.155-.44-.448-.44-.347,0,0,.01.594-.082.65s-.613-.091-.622-.229a.4.4,0,0,1,.072-.3c.053-.054-.384-.247-.64-.065s-.182.228-.228.264-.092-.143-.22-.09a1.341,1.341,0,0,0-.44.329,1.273,1.273,0,0,1-.448.392c-.211.1-.375.019-.64.275s-.347.1-.3.466.32.874.2,1.059-.176.387.063.358.541-.193.816-.248.557-.286.731-.173.448.092.5.286a.7.7,0,0,1,.035.292s.12-.155.22-.147-.009-.082.1.211.027.42.173.5,0,.256.412.193a2.077,2.077,0,0,0,.306-.072A8.653,8.653,0,0,1,1.539,13.442c.048-.193.06-.442.259-.564.312-.193.716-.293.476-1.208s.238-.914.622-1.308.97-1.245.631-1.162-.6.3-.96-.175S1.176,6.968,1.542,7.163A3.263,3.263,0,0,1,2.777,9s.266.092.906-.384.979-.573.9-.788-.42-.522-.549-.376S3.5,7.444,3.3,7.162s-.179-.526.109-.349a2.372,2.372,0,0,0,1.317.6c.616,0,.892.082,1.154.508s.206-.027.274-.072.384,1.962.618,1.8.178-.9.425-1.07a10.371,10.371,0,0,1,.94-.638c.2-.082.3-.072.43.2s.206.638.507.425.225.42.243.568a1.7,1.7,0,0,0,.259.8c.241.405.261.481.46.542s-.192-.716-.35-.859S9.354,9,9.5,8.955s.562.358.632.481.528-.254.507-.493-.573-.551-.516-.68.191-.521.3-.348.083.385.138.339.12-.3.329-.411,1.235-.806.9-1.419-.384-.672-.238-.8,0-.175-.143-.17a.229.229,0,0,1-.179-.385c.165-.224.27-.072.274,0s.17.106.316.046.1.266.143.286a.662.662,0,0,1,.269.453c0,.21.22.072.335-.2s0-.449-.179-.5-.238-.128-.188-.215.152-.173.16-.246-.1-.092-.014-.165a.43.43,0,0,1,.286-.114c.16-.018.5-.563.407-1.1s-.091-1.3-.513-1.111-.384-.028-.4-.147.156-.246.165-.393a2.213,2.213,0,0,1,.12-.532,8.661,8.661,0,0,1,2.766,14.107Z" transform="translate(0.065 -0.01)"/></g></g></svg>