<?xml version="1.0" encoding="UTF-8"?>
<svg width="32px" height="32px" viewBox="0 0 32 32" version="1.1" xmlns="http://www.w3.org/2000/svg" xmlns:xlink="http://www.w3.org/1999/xlink">
    <title>Footer/Linkedin</title>
    <g id="Footer/Linkedin" stroke="none" stroke-width="1" fill="none" fill-rule="evenodd">
        <path d="M16.0004544,1 C20.1443602,1 23.8902329,2.67757179 26.6064905,5.39355386 C29.3224451,8.10953593 31,11.8554465 31,15.9996971 C31,20.1442506 29.3224451,23.8901612 26.6064905,26.6058403 C23.8902329,29.3221253 20.1443602,31 16.0004544,31 C11.8556398,31 8.10976706,29.3221253 5.39441825,26.6058403 C2.67785777,23.8901612 1,20.1442506 1,15.9996971 C1,11.8554465 2.67785777,8.10953593 5.39441825,5.39355386 C8.10976706,2.67757179 11.8556398,1 16.0004544,1 Z M16.0004544,2.1710893 C12.1788523,2.1710893 8.72438584,3.71598207 6.22410816,6.22416091 C3.71625756,8.72416091 2.17107748,12.1792681 2.17107748,15.9996971 C2.17107748,19.8204289 3.71625756,23.2758391 6.22410816,25.7755362 C8.72438584,28.283715 12.1788523,29.8286078 16.0004544,29.8286078 C19.8211477,29.8286078 23.2756142,28.283715 25.7758918,25.7755362 C28.2837424,23.2758391 29.8286196,19.8204289 29.8286196,15.9996971 C29.8286196,12.1792681 28.2837424,8.72416091 25.7758918,6.22416091 C23.2756142,3.71598207 19.8211477,2.1710893 16.0004544,2.1710893 Z M16.7061906,13.7407609 L16.7061906,14.9618321 L16.7476903,14.9618321 C17.1296687,14.2390646 18.0429637,13.7407609 19.3970031,13.7407609 C21.706443,13.7407609 22.4867575,14.8037077 22.6945586,16.5146008 C22.7439341,16.9135466 22.7690762,17.3452078 22.7690762,17.8104932 L22.7690762,17.8104932 L22.7690762,22.7686902 L20.0609974,22.7686902 L20.0604498,18.2522685 C20.0507354,17.2191563 19.8975853,15.9751 18.5006715,15.9751 C17.0545453,15.9751 16.8222079,17.112868 16.8222079,18.2924391 L16.8222079,18.2924391 L16.8222079,22.7686902 L14.1892525,22.7686902 L14.1892525,13.7407609 L16.7061906,13.7407609 Z M12.3868958,13.7407609 L12.3868958,22.7686902 L9.23110555,22.7686902 L9.23110555,13.7407609 L12.3868958,13.7407609 Z M10.8093036,9.23058282 C11.6814019,9.23058282 12.3868958,9.93668969 12.3868958,10.8087968 C12.3868958,11.6812068 11.6814019,12.3870108 10.8093036,12.3870108 C9.93720529,12.3870108 9.23110555,11.6812068 9.23110555,10.8087968 C9.23110555,9.93668969 9.93720529,9.23058282 10.8093036,9.23058282 Z" id="形状结合" fill="#FEFEFE"></path>
    </g>
</svg>