<?xml version="1.0" encoding="UTF-8"?>
<svg width="20px" height="20px" viewBox="0 0 20 20" version="1.1" xmlns="http://www.w3.org/2000/svg" xmlns:xlink="http://www.w3.org/1999/xlink">
    <title>icon/通知公告</title>
    <g id="icon/通知公告" stroke="none" stroke-width="1" fill="none" fill-rule="evenodd">
        <path d="M2,13.5 L2,6.5 C2,6.22385763 2.22385763,6 2.5,6 L5.84861218,6 C5.94732467,6 6.04382852,5.97078099 6.12596228,5.91602515 L11.2226499,2.5182334 C11.4524142,2.36505717 11.7628489,2.4271441 11.9160251,2.65690845 C11.970781,2.73904221 12,2.83554605 12,2.93425855 L12,17.0657415 C12,17.3418838 11.7761424,17.5657415 11.5,17.5657415 C11.4012875,17.5657415 11.3047837,17.5365224 11.2226499,17.4817666 L6.12596228,14.0839749 C6.04382852,14.029219 5.94732467,14 5.84861218,14 L2.5,14 C2.22385763,14 2,13.7761424 2,13.5 Z" id="路径" stroke="#996600" stroke-width="1.5"></path>
        <path d="M17,14 C17.896077,13.1948865 18.5,11.6779331 18.5,9.93924237 C18.5,8.2844823 17.9529753,6.83056872 17.1276898,6" id="路径" stroke="#996600" stroke-width="1.5" stroke-linecap="round"></path>
        <path d="M15,12 C15.4181693,11.5974433 15.7,10.8389666 15.7,9.96962119 C15.7,9.14224115 15.4447218,8.41528436 15.0595886,8" id="路径备份" stroke="#996600" stroke-width="1.5" stroke-linecap="round"></path>
    </g>
</svg>