<?xml version="1.0" encoding="UTF-8"?>
<svg width="84px" height="84px" viewBox="0 0 84 84" version="1.1" xmlns="http://www.w3.org/2000/svg" xmlns:xlink="http://www.w3.org/1999/xlink">
    <title>icon/purchasing management</title>
    <g id="icon/purchasing-management" stroke="none" stroke-width="1" fill="none" fill-rule="evenodd">
        <g id="编组-16" transform="translate(9.500000, 17.656989)" fill="#996600" fill-rule="nonzero">
            <g id="编组-14" transform="translate(0.000000, -0.000000)">
                <path d="M6.20821685,0 C8.33651134,0 10.1630801,1.48869892 10.6070109,3.55072042 L10.6467551,3.75879974 L15.416636,32.3223338 C15.5298357,33.0002089 16.0868311,33.5082791 16.760052,33.5691399 L16.8961488,33.5752671 L50.9308499,33.5752671 C51.7592771,33.5752671 52.4308499,34.24684 52.4308499,35.0752671 C52.4308499,35.8549632 51.8359618,36.4957158 51.0753099,36.5684005 L50.9308499,36.5752671 L16.8961488,36.5752671 C14.7678543,36.5752671 12.9412855,35.0865682 12.4973548,33.0245467 L12.4576105,32.8164673 L7.68772961,4.25293325 C7.57452992,3.57505821 7.01753454,3.06698801 6.34431364,3.00612718 L6.20821685,3 L1.5,3 C0.671572875,3 0,2.32842712 0,1.5 C0,0.720303883 0.594888083,0.0795513218 1.35553999,0.00686657806 L1.5,0 L6.20821685,0 Z" id="路径" stroke="#996600" stroke-width="0.2"></path>
                <path d="M22.0279162,38.3131338 C19.5426349,38.3131338 17.5279162,40.3278524 17.5279162,42.8131338 C17.5279162,45.2984152 19.5426349,47.3131338 22.0279162,47.3131338 C24.5131976,47.3131338 26.5279162,45.2984152 26.5279162,42.8131338 C26.5279162,40.3278524 24.5131976,38.3131338 22.0279162,38.3131338 Z M22.0279162,41.3131338 C22.8563434,41.3131338 23.5279162,41.9847067 23.5279162,42.8131338 C23.5279162,43.6415609 22.8563434,44.3131338 22.0279162,44.3131338 C21.1994891,44.3131338 20.5279162,43.6415609 20.5279162,42.8131338 C20.5279162,41.9847067 21.1994891,41.3131338 22.0279162,41.3131338 Z" id="椭圆形" stroke="#996600" stroke-width="0.2"></path>
                <path d="M44.0279162,38.3131338 C41.5426349,38.3131338 39.5279162,40.3278524 39.5279162,42.8131338 C39.5279162,45.2984152 41.5426349,47.3131338 44.0279162,47.3131338 C46.5131976,47.3131338 48.5279162,45.2984152 48.5279162,42.8131338 C48.5279162,40.3278524 46.5131976,38.3131338 44.0279162,38.3131338 Z M44.0279162,41.3131338 C44.8563434,41.3131338 45.5279162,41.9847067 45.5279162,42.8131338 C45.5279162,43.6415609 44.8563434,44.3131338 44.0279162,44.3131338 C43.1994891,44.3131338 42.5279162,43.6415609 42.5279162,42.8131338 C42.5279162,41.9847067 43.1994891,41.3131338 44.0279162,41.3131338 Z" id="椭圆形备份" stroke="#996600" stroke-width="0.2"></path>
                <path d="M53.9287236,2.73786671 C56.414005,2.73786671 58.4287236,4.75258534 58.4287236,7.23786671 C58.4287236,7.4217512 58.4174525,7.60537606 58.3950051,7.78771156 L58.3529638,8.06011907 L54.730207,27.5528527 C54.3472391,29.6134635 52.5965023,31.1268776 50.5217133,31.2254823 L50.3059668,31.2306003 L21.8313163,31.2306003 C21.0028892,31.2306003 20.3313163,30.5590274 20.3313163,29.7306003 C20.3313163,28.9509042 20.9262044,28.3101516 21.6868563,28.2374669 L21.8313163,28.2306003 L50.3059668,28.2306003 C50.9805082,28.2306003 51.5655368,27.7816641 51.7479107,27.1440981 L51.7807136,27.0046844 L55.4034703,7.51195083 C55.4202703,7.42155648 55.4287236,7.32980895 55.4287236,7.23786671 C55.4287236,6.45817059 54.8338355,5.81741803 54.0731836,5.74473329 L53.9287236,5.73786671 L9.68324946,5.73786671 C8.85482234,5.73786671 8.18324946,5.06629384 8.18324946,4.23786671 C8.18324946,3.45817059 8.77813755,2.81741803 9.53878945,2.74473329 L9.68324946,2.73786671 L53.9287236,2.73786671 Z" id="路径" stroke="#996600" stroke-width="0.2"></path>
                <path d="M33,10.3430106 C33.8284271,10.3430106 34.5,11.059355 34.5,11.9430106 C34.5,12.7746865 33.9051119,13.4581559 33.14446,13.5356862 L33,13.5430106 L17,13.5430106 C16.1715729,13.5430106 15.5,12.8266662 15.5,11.9430106 C15.5,11.1113347 16.0948881,10.4278653 16.85554,10.3503349 L17,10.3430106 L33,10.3430106 Z" id="直线"></path>
            </g>
        </g>
    </g>
</svg>