<?xml version="1.0" encoding="UTF-8"?>
<svg width="152px" height="50px" viewBox="0 0 152 50" version="1.1" xmlns="http://www.w3.org/2000/svg" xmlns:xlink="http://www.w3.org/1999/xlink">
    <title>navigation/PURO logo/chinese备份 3</title>
    <g id="navigation/PURO-logo/chinese备份-3" stroke="none" stroke-width="1" fill="none" fill-rule="evenodd">
        <path d="M19.162,40.022 C20.22,40.022 20.9176667,39.8341667 21.255,39.4585 C21.5923333,39.0828333 21.761,38.481 21.761,37.653 L21.761,37.653 L21.761,31.374 L22.842,30.868 L23.808,30.339 L23.693,28.269 L22.819,28.729 L21.761,29.212 L21.761,25.21 L23.831,25.21 L23.831,23.278 L21.761,23.278 L21.761,19 L19.691,19 L19.691,23.278 L17.069,23.278 L17.069,25.21 L19.691,25.21 L19.691,29.971 L18.288,30.362 L17,30.638 L17.299,32.754 C17.4063333,32.7386667 17.483,32.731 17.529,32.731 C18.311,32.5623333 19.0316667,32.3553333 19.691,32.11 L19.691,32.11 L19.691,37.216 C19.691,37.6913333 19.438,37.929 18.932,37.929 L18.932,37.929 L17.207,37.837 L17.713,40.022 L19.162,40.022 Z M24.084,22.887 C24.5746667,22.841 24.9886667,22.8103333 25.326,22.795 C29.9566667,22.519 34.1426667,21.9593333 37.884,21.116 L37.884,21.116 L37.01,19.184 C33.5753333,19.9966667 29.121,20.495 23.647,20.679 L23.647,20.679 L24.084,22.887 Z M35.515,28.338 C36.1436667,27.2493333 36.7723333,25.9 37.401,24.29 C37.4776667,24.0753333 37.585,23.7993333 37.723,23.462 L37.723,23.462 L35.676,22.68 C35.17,24.1826667 34.411,25.716 33.399,27.28 L33.399,27.28 L35.515,28.338 Z M29.972,27.165 L32.203,26.935 L31.927,24.75 C31.8656667,24.3206667 31.7813333,23.8913333 31.674,23.462 L31.674,23.462 L31.559,23.002 L29.489,23.278 C29.5963333,23.6613333 29.6883333,24.244 29.765,25.026 L29.765,25.026 L29.972,27.165 Z M25.855,28.269 L28.017,27.74 C27.925,27.464 27.856,27.234 27.81,27.05 C27.4266667,25.808 27.051,24.7883333 26.683,23.991 C26.6523333,23.9143333 26.6063333,23.807 26.545,23.669 L26.545,23.669 L24.544,24.221 C24.7586667,24.589 24.9963333,25.2253333 25.257,26.13 L25.257,26.13 L25.855,28.269 Z M31.812,40.16 L31.812,34.065 C32.9773333,35.6136667 34.6946667,37.2006667 36.964,38.826 L36.964,38.826 L38.16,36.802 C35.4306667,35.0386667 33.399,33.329 32.065,31.673 L32.065,31.673 L37.93,31.673 L37.93,29.672 L31.812,29.672 L31.812,27.97 L29.673,27.97 L29.673,29.672 L23.969,29.672 L23.969,31.673 L29.259,31.673 C28.155,32.9916667 27.1583333,34.0075 26.269,34.7205 C25.3796667,35.4335 24.1913333,36.1733333 22.704,36.94 L22.704,36.94 L24.36,38.826 C26.3993333,37.492 28.1703333,35.8743333 29.673,33.973 L29.673,33.973 L29.673,40.16 L31.812,40.16 Z M55.742712,40.16 L55.742712,36.434 L63.539712,36.434 L63.539712,37.469 C63.539712,37.9596667 63.2790453,38.205 62.757712,38.205 L62.757712,38.205 L60.411712,38.09 L60.917712,39.884 L63.240712,39.884 C64.114712,39.884 64.6935453,39.6885 64.977212,39.2975 C65.2608787,38.9065 65.402712,38.32 65.402712,37.538 L65.402712,37.538 L65.402712,36.434 L66.368712,36.434 L66.368712,34.755 L65.402712,34.755 L65.402712,28.821 L60.503712,28.821 L60.503712,27.694 L66.345712,27.694 L66.345712,26.015 L63.240712,26.015 L63.240712,24.704 L65.701712,24.704 L65.701712,23.14 L63.240712,23.14 L63.240712,21.944 L66.115712,21.944 L66.115712,20.311 L63.240712,20.311 L63.240712,19 L61.377712,19 L61.377712,20.311 L57.697712,20.311 L57.697712,19 L55.834712,19 L55.834712,20.311 L52.913712,20.311 L52.913712,21.944 L55.834712,21.944 L55.834712,23.14 L53.373712,23.14 L53.373712,24.704 L55.834712,24.704 L55.834712,26.015 L52.660712,26.015 L52.660712,27.694 L58.663712,27.694 L58.663712,28.821 L53.879712,28.821 L53.879712,34.755 L52.453712,34.755 L52.453712,36.434 L53.879712,36.434 L53.879712,40.16 L55.742712,40.16 Z M52.200712,34.479 L52.200712,19.598 L46.013712,19.598 L46.013712,34.479 L52.200712,34.479 Z M50.268712,23.876 L47.945712,23.876 L47.945712,21.346 L50.268712,21.346 L50.268712,23.876 Z M61.377712,23.14 L57.697712,23.14 L57.697712,21.944 L61.377712,21.944 L61.377712,23.14 Z M61.377712,26.015 L57.697712,26.015 L57.697712,24.704 L61.377712,24.704 L61.377712,26.015 Z M50.268712,28.223 L47.945712,28.223 L47.945712,25.486 L50.268712,25.486 L50.268712,28.223 Z M50.268712,32.754 L47.945712,32.754 L47.945712,29.81 L50.268712,29.81 L50.268712,32.754 Z M58.663712,31.857 L55.742712,31.857 L55.742712,30.523 L58.663712,30.523 L58.663712,31.857 Z M63.539712,31.857 L60.503712,31.857 L60.503712,30.523 L63.539712,30.523 L63.539712,31.857 Z M58.663712,34.755 L55.742712,34.755 L55.742712,33.306 L58.663712,33.306 L58.663712,34.755 Z M63.539712,34.755 L60.503712,34.755 L60.503712,33.306 L63.539712,33.306 L63.539712,34.755 Z M47.140712,40.068 C47.8000453,38.8106667 48.336712,37.2083333 48.750712,35.261 L48.750712,35.261 L47.002712,34.824 C46.450712,36.6486667 45.8450453,38.1513333 45.185712,39.332 L45.185712,39.332 L47.140712,40.068 Z M51.073712,39.378 L52.729712,38.665 C52.6070453,38.3123333 52.5150453,38.0363333 52.453712,37.837 C52.085712,36.7943333 51.6870453,35.8973333 51.257712,35.146 C51.211712,35.0693333 51.1580453,34.9773333 51.096712,34.87 L51.096712,34.87 L49.555712,35.399 L50.383712,37.423 C50.5370453,37.791 50.6980453,38.228 50.866712,38.734 C50.912712,38.8873333 50.981712,39.102 51.073712,39.378 L51.073712,39.378 Z M94.301424,23.485 L94.301424,21.622 L91.771424,21.622 C91.7407573,21.4686667 91.7177573,21.346 91.702424,21.254 C91.5950907,20.6406667 91.3957573,19.8893333 91.104424,19 L91.104424,19 L89.149424,19.276 C89.241424,19.3833333 89.379424,19.7896667 89.563424,20.495 L89.563424,20.495 L89.816424,21.622 L86.987424,21.622 L86.987424,23.485 L94.301424,23.485 Z M80.846424,23.439 L80.846424,21.576 L78.316424,21.576 L78.040424,20.334 C77.9330907,19.8126667 77.8027573,19.368 77.649424,19 L77.649424,19 L75.694424,19.276 C75.8630907,19.6133333 76.0010907,20.0196667 76.108424,20.495 L76.108424,20.495 L76.361424,21.576 L73.670424,21.576 L73.670424,23.439 L80.846424,23.439 Z M80.478424,39.999 C81.8430907,37.8063333 82.709424,35.7018333 83.077424,33.6855 C83.445424,31.6691667 83.629424,29.2273333 83.629424,26.36 L83.629424,26.36 L83.629424,25.463 L85.009424,25.463 L85.009424,26.958 C85.009424,30.1933333 84.9557573,32.7693333 84.848424,34.686 C84.7870907,35.79 84.6720907,36.549 84.503424,36.963 C84.3347573,37.377 84.008924,37.584 83.525924,37.584 C83.042924,37.584 82.571424,37.5456667 82.111424,37.469 L82.111424,37.469 L82.663424,39.539 C82.8167573,39.5696667 83.0467573,39.585 83.353424,39.585 C84.5340907,39.585 85.3735907,39.2668333 85.871924,38.6305 C86.3702573,37.9941667 86.619424,37.009 86.619424,35.675 C86.711424,34.5556667 86.757424,32.0103333 86.757424,28.039 L86.757424,23.577 L83.629424,23.577 L83.629424,19 L81.858424,19 L81.858424,23.577 L80.616424,23.577 L80.616424,25.463 L81.858424,25.463 C81.7357573,29.7256667 81.444424,32.6428333 80.984424,34.2145 C80.524424,35.7861667 79.811424,37.3386667 78.845424,38.872 L78.845424,38.872 L80.478424,39.999 Z M75.418424,40.137 C76.798424,38.6343333 77.6800907,36.664 78.063424,34.226 L78.063424,34.226 L79.351424,33.95 C79.5200907,33.904 79.9800907,33.766 80.731424,33.536 L80.731424,33.536 L80.731424,31.719 C80.5167573,31.8263333 80.0720907,31.9566667 79.397424,32.11 L79.397424,32.11 L78.201424,32.363 L78.270424,31.213 L78.293424,30.178 L80.432424,30.178 L80.432424,28.315 L79.167424,28.315 C79.5660907,27.5023333 79.9340907,26.0993333 80.271424,24.106 L80.271424,24.106 L78.546424,23.692 C78.3010907,25.3173333 77.9330907,26.728 77.442424,27.924 C77.396424,28.0313333 77.3427573,28.1616667 77.281424,28.315 L77.281424,28.315 L76.982424,28.315 L76.430424,26.084 C76.3537573,25.808 76.1850907,25.2713333 75.924424,24.474 C75.8630907,24.29 75.786424,24.0523333 75.694424,23.761 L75.694424,23.761 L74.084424,24.267 C74.590424,25.509 74.9277573,26.8583333 75.096424,28.315 L75.096424,28.315 L73.601424,28.315 L73.601424,30.178 L76.292424,30.178 L76.292424,31.305 L76.223424,32.639 L74.774424,32.8 L73.394424,32.869 L73.624424,34.87 L74.728424,34.755 L75.901424,34.594 C75.6407573,35.882 74.9660907,37.1623333 73.877424,38.435 L73.877424,38.435 L75.418424,40.137 Z M91.633424,40.16 L91.633424,34.801 L94.301424,34.801 L94.301424,32.938 L91.633424,32.938 L91.633424,30.247 L94.577424,30.247 L94.577424,28.315 L92.714424,28.315 C93.1130907,27.5023333 93.4810907,26.0993333 93.818424,24.106 L93.818424,24.106 L92.116424,23.692 C91.8250907,25.6393333 91.3957573,27.1803333 90.828424,28.315 L90.828424,28.315 L90.506424,28.315 L89.954424,26.084 C89.7857573,25.4706667 89.5327573,24.6963333 89.195424,23.761 L89.195424,23.761 L87.608424,24.267 C88.114424,25.509 88.4517573,26.8583333 88.620424,28.315 L88.620424,28.315 L87.033424,28.315 L87.033424,30.247 L89.609424,30.247 L89.609424,32.938 L87.286424,32.938 L87.286424,34.801 L89.609424,34.801 L89.609424,40.16 L91.633424,40.16 Z M103.397136,30.017 C106.540469,27.2416667 108.855803,23.876 110.343136,19.92 L110.343136,19.92 L108.250136,19.092 C107.069469,22.496 104.861469,25.5626667 101.626136,28.292 L101.626136,28.292 L103.397136,30.017 Z M121.084136,29.258 L122.786136,27.487 C119.566136,25.095 117.450136,22.45 116.438136,19.552 L116.438136,19.552 L111.585136,19.552 L111.585136,21.53 L115.081136,21.53 C115.955136,23.416 116.825303,24.8803333 117.691636,25.923 C118.557969,26.9656667 119.688803,28.0773333 121.084136,29.258 L121.084136,29.258 Z M119.175136,40.16 L121.498136,39.493 C120.394136,36.1043333 118.937469,33.1066667 117.128136,30.5 L117.128136,30.5 L115.127136,31.351 C116.123803,32.8076667 116.967136,34.2643333 117.657136,35.721 C116.430469,35.9816667 115.081136,36.112 113.609136,36.112 C112.505136,36.112 111.102136,36.1656667 109.400136,36.273 C109.170136,36.2883333 108.886469,36.3036667 108.549136,36.319 C110.266469,33.7583333 111.730803,30.546 112.942136,26.682 L112.942136,26.682 L110.596136,26.084 C109.154803,30.6533333 107.567803,34.1033333 105.835136,36.434 L105.835136,36.434 L104.294136,36.48 L102.707136,36.457 L103.121136,38.964 L111.194136,38.458 C113.678136,38.458 116.070136,38.2663333 118.370136,37.883 C118.554136,38.297 118.715136,38.711 118.853136,39.125 L118.853136,39.125 L119.175136,40.16 Z M132.272848,25.739 L132.272848,23.071 L148.625848,23.071 L148.625848,25.739 L150.764848,25.739 L150.764848,21.047 L141.541848,21.047 L141.150848,19.989 L140.690848,19 L138.344848,19.276 C138.482848,19.4446667 138.643848,19.7436667 138.827848,20.173 L138.827848,20.173 L139.195848,21.047 L130.133848,21.047 L130.133848,25.739 L132.272848,25.739 Z M150.994848,39.608 L150.994848,37.676 L141.426848,37.676 L141.426848,35.33 L149.706848,35.33 L149.706848,33.375 L141.426848,33.375 L141.426848,31.19 C141.656848,31.1746667 142.097681,31.1555 142.749348,31.1325 C143.401015,31.1095 144.478181,30.9983333 145.980848,30.799 C146.210848,30.7683333 146.502181,30.73 146.854848,30.684 L146.854848,30.684 L147.774848,31.489 L148.855848,32.409 L150.258848,30.983 C149.354181,30.155 148.434181,29.4113333 147.498848,28.752 L147.498848,28.752 L144.577848,26.659 L143.036848,27.855 L143.933848,28.43 L144.968848,29.166 L141.587848,29.304 C140.269181,29.304 138.896848,29.327 137.470848,29.373 L137.470848,29.373 L137.677848,29.166 C137.969181,28.844 138.237515,28.4836667 138.482848,28.085 L138.482848,28.085 L139.287848,26.659 L147.866848,26.659 L147.866848,24.75 L133.146848,24.75 L133.146848,26.659 L136.987848,26.659 C136.589181,27.625 135.929848,28.5296667 135.009848,29.373 L135.009848,29.373 L133.422848,29.373 L131.329848,29.304 L131.766848,31.443 C132.502848,31.397 133.867515,31.374 135.860848,31.374 L135.860848,31.374 L139.287848,31.236 L139.287848,33.375 L131.306848,33.375 L131.306848,35.33 L139.287848,35.33 L139.287848,37.676 L129.811848,37.676 L129.811848,39.608 L150.994848,39.608 Z" id="採購辦公室" fill="#003366" fill-rule="nonzero"></path>
    </g>
</svg>