<?xml version="1.0" encoding="UTF-8"?>
<svg width="95px" height="50px" viewBox="0 0 95 50" version="1.1" xmlns="http://www.w3.org/2000/svg" xmlns:xlink="http://www.w3.org/1999/xlink">
    <title>navigation/PURO logo/chinese备份 6</title>
    <g id="navigation/PURO-logo/chinese备份-6" stroke="none" stroke-width="1" fill="none" fill-rule="evenodd">
        <path d="M19.162,40.022 C20.22,40.022 20.9176667,39.8341667 21.255,39.4585 C21.5923333,39.0828333 21.761,38.481 21.761,37.653 L21.761,37.653 L21.761,31.374 L22.842,30.868 L23.808,30.339 L23.693,28.269 L22.819,28.729 L21.761,29.212 L21.761,25.21 L23.831,25.21 L23.831,23.278 L21.761,23.278 L21.761,19 L19.691,19 L19.691,23.278 L17.069,23.278 L17.069,25.21 L19.691,25.21 L19.691,29.971 L18.288,30.362 L17,30.638 L17.299,32.754 C17.4063333,32.7386667 17.483,32.731 17.529,32.731 C18.311,32.5623333 19.0316667,32.3553333 19.691,32.11 L19.691,32.11 L19.691,37.216 C19.691,37.6913333 19.438,37.929 18.932,37.929 L18.932,37.929 L17.207,37.837 L17.713,40.022 L19.162,40.022 Z M24.084,22.887 C24.5746667,22.841 24.9886667,22.8103333 25.326,22.795 C29.9566667,22.519 34.1426667,21.9593333 37.884,21.116 L37.884,21.116 L37.01,19.184 C33.5753333,19.9966667 29.121,20.495 23.647,20.679 L23.647,20.679 L24.084,22.887 Z M35.515,28.338 C36.1436667,27.2493333 36.7723333,25.9 37.401,24.29 C37.4776667,24.0753333 37.585,23.7993333 37.723,23.462 L37.723,23.462 L35.676,22.68 C35.17,24.1826667 34.411,25.716 33.399,27.28 L33.399,27.28 L35.515,28.338 Z M29.972,27.165 L32.203,26.935 L31.927,24.75 C31.8656667,24.3206667 31.7813333,23.8913333 31.674,23.462 L31.674,23.462 L31.559,23.002 L29.489,23.278 C29.5963333,23.6613333 29.6883333,24.244 29.765,25.026 L29.765,25.026 L29.972,27.165 Z M25.855,28.269 L28.017,27.74 C27.925,27.464 27.856,27.234 27.81,27.05 C27.4266667,25.808 27.051,24.7883333 26.683,23.991 C26.6523333,23.9143333 26.6063333,23.807 26.545,23.669 L26.545,23.669 L24.544,24.221 C24.7586667,24.589 24.9963333,25.2253333 25.257,26.13 L25.257,26.13 L25.855,28.269 Z M31.812,40.16 L31.812,34.065 C32.9773333,35.6136667 34.6946667,37.2006667 36.964,38.826 L36.964,38.826 L38.16,36.802 C35.4306667,35.0386667 33.399,33.329 32.065,31.673 L32.065,31.673 L37.93,31.673 L37.93,29.672 L31.812,29.672 L31.812,27.97 L29.673,27.97 L29.673,29.672 L23.969,29.672 L23.969,31.673 L29.259,31.673 C28.155,32.9916667 27.1583333,34.0075 26.269,34.7205 C25.3796667,35.4335 24.1913333,36.1733333 22.704,36.94 L22.704,36.94 L24.36,38.826 C26.3993333,37.492 28.1703333,35.8743333 29.673,33.973 L29.673,33.973 L29.673,40.16 L31.812,40.16 Z M55.534,40.16 L55.534,36.434 L63.331,36.434 L63.331,37.469 C63.331,37.9596667 63.0703333,38.205 62.549,38.205 L62.549,38.205 L60.203,38.09 L60.709,39.884 L63.032,39.884 C63.906,39.884 64.4848333,39.6885 64.7685,39.2975 C65.0521667,38.9065 65.194,38.32 65.194,37.538 L65.194,37.538 L65.194,36.434 L66.16,36.434 L66.16,34.755 L65.194,34.755 L65.194,28.821 L60.295,28.821 L60.295,27.694 L66.137,27.694 L66.137,26.015 L63.032,26.015 L63.032,24.704 L65.493,24.704 L65.493,23.14 L63.032,23.14 L63.032,21.944 L65.907,21.944 L65.907,20.311 L63.032,20.311 L63.032,19 L61.169,19 L61.169,20.311 L57.489,20.311 L57.489,19 L55.626,19 L55.626,20.311 L52.705,20.311 L52.705,21.944 L55.626,21.944 L55.626,23.14 L53.165,23.14 L53.165,24.704 L55.626,24.704 L55.626,26.015 L52.452,26.015 L52.452,27.694 L58.455,27.694 L58.455,28.821 L53.671,28.821 L53.671,34.755 L52.245,34.755 L52.245,36.434 L53.671,36.434 L53.671,40.16 L55.534,40.16 Z M51.992,34.479 L51.992,19.598 L45.805,19.598 L45.805,34.479 L51.992,34.479 Z M50.06,23.876 L47.737,23.876 L47.737,21.346 L50.06,21.346 L50.06,23.876 Z M61.169,23.14 L57.489,23.14 L57.489,21.944 L61.169,21.944 L61.169,23.14 Z M61.169,26.015 L57.489,26.015 L57.489,24.704 L61.169,24.704 L61.169,26.015 Z M50.06,28.223 L47.737,28.223 L47.737,25.486 L50.06,25.486 L50.06,28.223 Z M50.06,32.754 L47.737,32.754 L47.737,29.81 L50.06,29.81 L50.06,32.754 Z M58.455,31.857 L55.534,31.857 L55.534,30.523 L58.455,30.523 L58.455,31.857 Z M63.331,31.857 L60.295,31.857 L60.295,30.523 L63.331,30.523 L63.331,31.857 Z M58.455,34.755 L55.534,34.755 L55.534,33.306 L58.455,33.306 L58.455,34.755 Z M63.331,34.755 L60.295,34.755 L60.295,33.306 L63.331,33.306 L63.331,34.755 Z M46.932,40.068 C47.5913333,38.8106667 48.128,37.2083333 48.542,35.261 L48.542,35.261 L46.794,34.824 C46.242,36.6486667 45.6363333,38.1513333 44.977,39.332 L44.977,39.332 L46.932,40.068 Z M50.865,39.378 L52.521,38.665 C52.3983333,38.3123333 52.3063333,38.0363333 52.245,37.837 C51.877,36.7943333 51.4783333,35.8973333 51.049,35.146 C51.003,35.0693333 50.9493333,34.9773333 50.888,34.87 L50.888,34.87 L49.347,35.399 L50.175,37.423 C50.3283333,37.791 50.4893333,38.228 50.658,38.734 C50.704,38.8873333 50.773,39.102 50.865,39.378 L50.865,39.378 Z M78.06,40.183 C79.716,39.7076667 80.9426667,39.1096667 81.74,38.389 C82.982,39.2936667 84.4463333,39.746 86.133,39.746 L86.133,39.746 L93.815,39.746 L94.16,37.791 C92.2586667,37.8523333 89.8513333,37.883 86.938,37.883 C85.3586667,37.883 84.0706667,37.5993333 83.074,37.032 C83.534,36.526 83.9786667,35.8283333 84.408,34.939 C84.8373333,34.0496667 85.052,33.4363333 85.052,33.099 L85.052,33.099 L85.052,31.834 L81.142,31.834 L81.395,31.351 L81.625,30.822 L80.038,30.155 C79.1793333,32.1636667 77.9986667,33.7506667 76.496,34.916 L76.547,34.875 L76.6189796,34.4301837 C76.7128571,33.7868095 76.7691837,33.1484422 76.7879592,32.5150816 L76.795,32.041 C76.795,31.6423333 76.8256667,30.6303333 76.887,29.005 C76.9023333,28.6063333 76.91,28.0083333 76.91,27.211 L76.91,27.211 L76.91,24.589 L81.073,24.589 L81.073,25.785 L78.221,25.9 L78.29,27.487 L81.073,27.418 L81.073,28.016 C81.073,29.3806667 81.7783333,30.063 83.189,30.063 L83.189,30.063 L91.699,30.063 L91.699,28.407 L84.109,28.407 C83.5876667,28.407 83.3116667,28.2575 83.281,27.9585 C83.2503333,27.6595 83.2273333,27.441 83.212,27.303 L83.212,27.303 L89.284,27.165 L89.238,25.555 L83.212,25.716 L83.212,24.589 L91.331,24.589 L90.825,25.601 C90.733,25.785 90.5566667,26.0763333 90.296,26.475 C90.2653333,26.521 90.2346667,26.5746667 90.204,26.636 L90.204,26.636 L92.366,27.188 C93.0866667,26.1453333 93.6386667,24.7116667 94.022,22.887 L94.022,22.887 L83.879,22.887 L83.879,21.668 L92.78,21.668 L92.78,20.012 L83.879,20.012 L83.879,19 L81.671,19 L81.671,22.887 L74.794,22.887 L74.771,25.532 C74.7556667,26.314 74.7365,27.2033333 74.7135,28.2 C74.6905,29.1966667 74.679,30.4233333 74.679,31.88 C74.679,33.8886667 74.1423333,36.0353333 73.069,38.32 L73.069,38.32 L74.84,40.045 C74.9013333,40.045 75.1275,39.5543333 75.5185,38.573 C75.9095,37.5916667 76.22,36.5336667 76.45,35.399 L76.45,35.399 L76.53,34.975 L77.393,36.48 L78.129,35.836 C78.3896667,35.606 78.5736667,35.4066667 78.681,35.238 L78.681,35.238 L79.486,36.319 C79.6546667,36.549 79.8616667,36.7866667 80.107,37.032 L80.107,37.032 L80.36,37.285 C79.7466667,37.7603333 78.6733333,38.1896667 77.14,38.573 L77.14,38.573 L78.06,40.183 Z M86.34,37.768 C87.5053333,36.3726667 88.088,34.847 88.088,33.191 L88.088,33.191 L88.088,32.892 L89.491,32.892 L89.491,34.249 C89.491,35.1996667 89.6481667,35.8551667 89.9625,36.2155 C90.2768333,36.5758333 90.9016667,36.756 91.837,36.756 L91.837,36.756 L93.654,36.756 L93.654,35.008 L92.113,35.008 C91.6836667,35.008 91.4421667,34.9121667 91.3885,34.7205 C91.3348333,34.5288333 91.308,34.318 91.308,34.088 L91.308,34.088 L91.308,31.213 L86.34,31.213 C86.3553333,31.2743333 86.363,31.328 86.363,31.374 L86.363,31.374 L86.363,31.811 C86.363,32.7156667 86.2863333,33.5245 86.133,34.2375 C85.9796667,34.9505 85.512,35.744 84.73,36.618 L84.73,36.618 L86.34,37.768 Z M81.625,36.089 C80.935,35.537 80.3216667,34.8393333 79.785,33.996 L79.785,33.996 L80.176,33.398 L83.143,33.398 C83.0663333,33.582 83.005,33.7353333 82.959,33.858 C82.4836667,35.0386667 82.039,35.7823333 81.625,36.089 Z" id="採購處" fill="#003366" fill-rule="nonzero"></path>
    </g>
</svg>