<?xml version="1.0" encoding="UTF-8"?>
<svg width="32px" height="32px" viewBox="0 0 32 32" version="1.1" xmlns="http://www.w3.org/2000/svg" xmlns:xlink="http://www.w3.org/1999/xlink">
    <title>Icon/Search/dark</title>
    <g id="Icon/Search/dark" stroke="none" stroke-width="1" fill="none" fill-rule="evenodd">
        <g id="search" transform="translate(4.000000, 4.000000)" fill-rule="nonzero">
            <rect id="矩形" fill="#31383B" opacity="0" x="0" y="0" width="25" height="25"></rect>
            <path d="M24.6567096,21.6141002 L19.7890209,16.7464115 C19.5693158,16.5267064 19.2714934,16.404648 18.9590239,16.404648 L18.1632031,16.404648 C19.5107278,14.6811835 20.3114309,12.5134264 20.3114309,10.1552583 C20.3114309,4.54545454 15.7659763,0 10.1561726,0 C4.54636885,0 0.000914306641,4.54545454 0.000914306641,10.1552583 C0.000914306641,15.765062 4.54636885,20.3105166 10.1561726,20.3105166 C12.5143407,20.3105166 14.6820978,19.5098135 16.4055623,18.1622888 L16.4055623,18.9581096 C16.4055623,19.2705791 16.5276207,19.5684015 16.7473258,19.7881066 L21.6150145,24.6557953 C22.0739541,25.1147349 22.8160691,25.1147349 23.2701263,24.6557953 L24.6518273,23.2740943 C25.1107668,22.8151548 25.1107668,22.0730397 24.6567096,21.6141002 Z M10.1561726,16.404648 C6.70436123,16.404648 3.90678289,13.611952 3.90678289,10.1552583 C3.90678289,6.70344692 6.69947891,3.90586858 10.1561726,3.90586858 C13.6079839,3.90586858 16.4055623,6.6985646 16.4055623,10.1552583 C16.4055623,13.6070696 13.6128663,16.404648 10.1561726,16.404648 Z" id="形状" fill="#000000"></path>
        </g>
    </g>
</svg>