<?xml version="1.0" encoding="UTF-8"?>
<svg width="84px" height="84px" viewBox="0 0 84 84" version="1.1" xmlns="http://www.w3.org/2000/svg" xmlns:xlink="http://www.w3.org/1999/xlink">
    <title>icon/Specialist</title>
    <g id="icon/Specialist" stroke="none" stroke-width="1" fill="none" fill-rule="evenodd">
        <path d="M42,15.5 C33.9338071,15.5 28.5,20.4082494 28.5,29 C28.5,37.9921031 34.4028173,45.0714286 42,45.0714286 C49.5971827,45.0714286 55.5,37.9921031 55.5,29 C55.5,20.4082494 50.0661929,15.5 42,15.5 Z M42,18.5 C48.473558,18.5 52.5,22.1370047 52.5,29 C52.5,36.4436097 47.8074644,42.0714286 42,42.0714286 C36.1925356,42.0714286 31.5,36.4436097 31.5,29 C31.5,22.1370047 35.526442,18.5 42,18.5 Z" id="椭圆形" stroke="#996600" stroke-width="0.2" fill="#996600" fill-rule="nonzero"></path>
        <path d="M27.2981668,45.0401304 L17.5478585,51.6727279 C15.0156397,53.3952569 13.5,56.2593307 13.5,59.3218849 L13.5,60.4237217 C13.5,62.909003 15.5147186,64.9237217 18,64.9237217 L66,64.9237217 C68.4852814,64.9237217 70.5,62.909003 70.5,60.4237217 L70.5,59.3218849 C70.5,56.2593307 68.9843603,53.3952569 66.4521415,51.6727279 L56.715924,45.0497157 C56.5964347,44.9684336 56.4720258,44.8946302 56.343412,44.8287292 C54.6231004,43.9472509 52.513933,44.6272596 51.6324547,46.3475712 L47.1095495,55.1745677 C46.8486241,55.6837952 46.22443,55.885281 45.7150196,55.6247128 C45.1997268,55.3611358 44.9935855,54.7312046 45.2533682,54.2139886 L46.6271417,51.4788656 L45.2554902,48.0709858 C44.8983316,47.1836221 44.1935539,46.4811006 43.3050496,46.126789 C41.5095487,45.4107917 39.473577,46.2859022 38.7575796,48.0814032 L37.3927928,51.5038683 L38.8813363,54.2813363 C39.1299503,54.7729257 38.9329799,55.3729792 38.4413905,55.6215933 C37.908724,55.8909814 37.2584595,55.6821255 36.9822813,55.1529478 L32.3695779,46.3146687 C32.3067663,46.1943171 32.2370057,46.0777218 32.1606497,45.965474 C31.0734387,44.3672098 28.896431,43.9529194 27.2981668,45.0401304 Z M29.6801527,47.6528194 L29.7099996,47.7027043 L34.322703,56.5409834 C35.3585488,58.5257402 37.7974585,59.309084 39.7953001,58.2987053 C41.7018655,57.3344881 42.5026491,55.0512272 41.6493157,53.1193783 L41.5144189,52.8428847 L40.696,51.318 L41.5441871,49.1926271 C41.6464725,48.936127 41.9373255,48.8111112 42.1938257,48.9133965 L42.2666463,48.9495487 C42.3590415,49.0052128 42.4316419,49.0897259 42.4724601,49.1911389 L43.338,51.342 L42.5725265,52.867479 C41.572949,54.8575942 42.3661283,57.2814085 44.3488431,58.2955857 C46.3326043,59.3102981 48.76336,58.5256662 49.7794635,56.5426172 L54.3023687,47.7156206 C54.4282941,47.4698618 54.7296038,47.3727177 54.9753626,47.4986432 L55.0285786,47.5302127 L64.7647961,54.1532249 C66.4758576,55.3171658 67.5,57.2524672 67.5,59.3218849 L67.5,60.4237217 C67.5,61.2521488 66.8284271,61.9237217 66,61.9237217 L18,61.9237217 C17.1715729,61.9237217 16.5,61.2521488 16.5,60.4237217 L16.5,59.3218849 C16.5,57.2524672 17.5241424,55.3171658 19.2352039,54.1532249 L28.9855123,47.5206274 C29.2138357,47.3653116 29.5248368,47.4244959 29.6801527,47.6528194 Z" id="路径-2" stroke="#996600" stroke-width="0.2" fill="#996600" fill-rule="nonzero"></path>
    </g>
</svg>