<?xml version="1.0" encoding="UTF-8"?>
<svg width="84px" height="84px" viewBox="0 0 84 84" version="1.1" xmlns="http://www.w3.org/2000/svg" xmlns:xlink="http://www.w3.org/1999/xlink">
    <title>icon/Supplier Login</title>
    <g id="icon/Supplier-Login" stroke="none" stroke-width="1" fill="none" fill-rule="evenodd">
        <g id="编组-15" transform="translate(12.500000, 20.550252)" fill="#996600" fill-rule="nonzero">
            <g id="编组-12" transform="translate(0.000000, 0.000000)">
                <path d="M22.4754098,15.0491803 L22.4754098,39.295082 L16.3349653,39.295082 L16.3349653,36.295082 L19.475,36.295 L19.475,18.049 L10.5415815,18.0491803 C10.2722463,18.0491803 10.0128628,18.1431798 9.80704287,18.3126213 L9.70879846,18.4035429 L3.32295467,25.0396641 C3.14534917,25.2242304 3.03493742,25.4616129 3.00701581,25.7138554 L3,25.8410392 L3,35.1393443 C3,35.7350875 3.45074895,36.2255526 4.02980735,36.2883003 L4.1557377,36.295082 L6.73670242,36.295082 L6.73670242,39.295082 L4.1557377,39.295082 C1.93013716,39.295082 0.113161905,37.5455492 0.00508590321,35.3467575 L0,35.1393443 L0,25.8410392 C0,24.8432684 0.35886732,23.8815108 1.00667194,23.1292898 L1.16126255,22.9594989 L7.54710634,16.3233777 C8.27831633,15.5635098 9.2688786,15.1120945 10.3163305,15.055283 L10.5415815,15.0491803 L22.4754098,15.0491803 Z" id="路径" stroke="#996600" stroke-width="0.2"></path>
                <path d="M52.8442623,0 C55.0698628,0 56.8868381,1.74953282 56.9949141,3.94832448 L57,4.1557377 L57,39.295082 L37.8667977,39.295082 C37.0383706,39.295082 36.3667977,38.6235091 36.3667977,37.795082 C36.3667977,37.0153858 36.9616858,36.3746333 37.7223377,36.3019485 L37.8667977,36.295082 L54,36.295 L54,4.1557377 C54,3.55999448 53.5492511,3.06952932 52.9701927,3.00678171 L52.8442623,3 L20.9754098,3 C20.1469827,3 19.4754098,2.32842712 19.4754098,1.5 C19.4754098,0.720303883 20.0702979,0.0795513218 20.8309498,0.00686657806 L20.9754098,0 L52.8442623,0 Z M20.9754098,19.6018419 C21.755106,19.6018419 22.3958585,20.19673 22.4685433,20.9573819 L22.4754098,21.1018419 L22.4754098,35.1393443 C22.4754098,35.7350875 22.9261588,36.2255526 23.5052172,36.2883003 L23.6311475,36.295082 L27.4043839,36.295082 C28.232811,36.295082 28.9043839,36.9666548 28.9043839,37.795082 C28.9043839,38.5747781 28.3094958,39.2155306 27.5488439,39.2882154 L27.4043839,39.295082 L23.6311475,39.295082 C21.405547,39.295082 19.5885717,37.5455492 19.4804957,35.3467575 L19.4754098,35.1393443 L19.4754098,21.1018419 C19.4754098,20.2734148 20.1469827,19.6018419 20.9754098,19.6018419 Z" id="形状" stroke="#996600" stroke-width="0.2" transform="translate(38.237705, 19.647541) scale(-1, 1) translate(-38.237705, -19.647541) "></path>
                <path d="M43.5491803,12.8360656 C44.3776075,12.8360656 45.0491803,13.55241 45.0491803,14.4360656 C45.0491803,15.2677414 44.4542922,15.9512108 43.6936403,16.0287412 L43.5491803,16.0360656 L32.9262295,16.0360656 C32.0978024,16.0360656 31.4262295,15.3197212 31.4262295,14.4360656 C31.4262295,13.6043897 32.0211176,12.9209203 32.7817695,12.8433899 L32.9262295,12.8360656 L43.5491803,12.8360656 Z" id="直线"></path>
                <path d="M40.8934426,20.8032787 C41.7218697,20.8032787 42.3934426,21.5196231 42.3934426,22.4032787 C42.3934426,23.2349545 41.7985545,23.9184239 41.0379026,23.9959543 L40.8934426,24.0032787 L30.2704918,24.0032787 C29.4420647,24.0032787 28.7704918,23.2869343 28.7704918,22.4032787 C28.7704918,21.5716028 29.3653799,20.8881334 30.1260318,20.810603 L30.2704918,20.8032787 L40.8934426,20.8032787 Z" id="直线备份"></path>
                <path d="M11.6803279,31.8688525 C8.16290778,31.8688525 5.31147541,34.7202848 5.31147541,38.2377049 C5.31147541,41.755125 8.16290778,44.6065574 11.6803279,44.6065574 C15.197748,44.6065574 18.0491803,41.755125 18.0491803,38.2377049 C18.0491803,34.7202848 15.197748,31.8688525 11.6803279,31.8688525 Z M11.6803279,34.8688525 C13.5408937,34.8688525 15.0491803,36.3771391 15.0491803,38.2377049 C15.0491803,40.0982708 13.5408937,41.6065574 11.6803279,41.6065574 C9.81976203,41.6065574 8.31147541,40.0982708 8.31147541,38.2377049 C8.31147541,36.3771391 9.81976203,34.8688525 11.6803279,34.8688525 Z" id="椭圆形" stroke="#996600" stroke-width="0.2"></path>
                <path d="M43.5491803,31.8688525 C40.0317602,31.8688525 37.1803279,34.7202848 37.1803279,38.2377049 C37.1803279,41.755125 40.0317602,44.6065574 43.5491803,44.6065574 C47.0666004,44.6065574 49.9180328,41.755125 49.9180328,38.2377049 C49.9180328,34.7202848 47.0666004,31.8688525 43.5491803,31.8688525 Z M43.5491803,34.8688525 C45.4097462,34.8688525 46.9180328,36.3771391 46.9180328,38.2377049 C46.9180328,40.0982708 45.4097462,41.6065574 43.5491803,41.6065574 C41.6886145,41.6065574 40.1803279,40.0982708 40.1803279,38.2377049 C40.1803279,36.3771391 41.6886145,34.8688525 43.5491803,34.8688525 Z" id="椭圆形备份" stroke="#996600" stroke-width="0.2"></path>
                <path d="M11.2377049,15.9344262 C12.017401,15.9344262 12.6581536,16.5293143 12.7308383,17.2899662 L12.7377049,17.4344262 L12.7377049,23.2868852 C12.7377049,25.7011586 10.8364684,27.6713743 8.44954062,27.7819873 L8.23770492,27.7868852 L2.3852459,27.7868852 C1.55681878,27.7868852 0.885245902,27.1153124 0.885245902,26.2868852 C0.885245902,25.5071891 1.48013398,24.8664366 2.24078589,24.7937518 L2.3852459,24.7868852 L8.23770492,24.7868852 C9.01740104,24.7868852 9.6581536,24.1919972 9.73083834,23.4313453 L9.73770492,23.2868852 L9.73770492,17.4344262 C9.73770492,16.6059991 10.4092778,15.9344262 11.2377049,15.9344262 Z" id="路径" stroke="#996600" stroke-width="0.2"></path>
            </g>
            <path d="M51.3388352,4.28858234 C52.1185313,4.28858234 52.7592838,4.88347042 52.8319686,5.64412232 L52.8388352,5.78858234 L52.838,9.288 L61.3388352,9.28858234 C62.1185313,9.28858234 62.7592838,9.88347042 62.8319686,10.6441223 L62.8388352,10.7885823 C62.8388352,11.5682785 62.2439471,12.209031 61.4832952,12.2817158 L61.3388352,12.2885823 L52.3388352,12.2885823 C51.0133518,12.2885823 49.9287965,11.2570464 49.8441528,9.95295802 L49.8388352,9.78858234 L49.8388352,5.78858234 C49.8388352,4.96015521 50.510408,4.28858234 51.3388352,4.28858234 Z" id="路径" stroke="#996600" stroke-width="0.2" transform="translate(56.338835, 8.288582) rotate(-45.000000) translate(-56.338835, -8.288582) "></path>
        </g>
    </g>
</svg>