<?xml version="1.0" encoding="UTF-8"?>
<svg width="32px" height="32px" viewBox="0 0 32 32" version="1.1" xmlns="http://www.w3.org/2000/svg" xmlns:xlink="http://www.w3.org/1999/xlink">
    <title>Footer/Wechat</title>
    <g id="Footer/Wechat" stroke="none" stroke-width="1" fill="none" fill-rule="evenodd">
        <path d="M16.0003029,1 C20.1445535,1 23.8901612,2.67816069 26.6064461,5.39411533 C29.3224282,8.10976706 31,11.8556398 31,16.0001515 C31,20.1443602 29.3224282,23.8902329 26.6064461,26.6064905 C23.8901612,29.3221422 20.1445535,31 16.0003029,31 C11.8554465,31 8.10983885,29.3221422 5.3941597,26.6064905 C2.67757179,23.8902329 1,20.1443602 1,16.0001515 C1,11.8556398 2.67757179,8.10976706 5.3941597,5.39411533 C8.10983885,2.67816069 11.8554465,1 16.0003029,1 Z M16.0003029,2.17168331 C12.1789652,2.17168331 8.72446383,3.71656048 6.22416091,6.224714 C3.71628499,8.72468875 2.1710893,12.1794582 2.1710893,16.0001515 C2.1710893,19.8205418 3.71628499,23.2756142 6.22416091,25.7755889 C8.72446383,28.2840454 12.1789652,29.8286196 16.0003029,29.8286196 C19.8210348,29.8286196 23.2755362,28.2840454 25.7758391,25.7755889 C28.2840179,23.2756142 29.8289107,19.8205418 29.8289107,16.0001515 C29.8289107,12.1794582 28.2840179,8.72468875 25.7758391,6.224714 C23.2755362,3.71656048 19.8210348,2.17168331 16.0003029,2.17168331 Z M19.7504544,13.2526631 C23.0837877,13.2526631 25.7852296,15.4912205 25.7855325,18.2523097 C25.7855325,19.767501 24.9712832,21.1236609 23.6865988,22.0414996 L23.6865988,22.0414996 L24.1343148,23.8941406 L22.0986914,22.8605875 C21.3768327,23.1132203 20.5837877,23.253168 19.7504544,23.253168 C16.4177269,23.253168 13.7156791,21.0140049 13.7156791,18.2526127 C13.7156791,15.4912205 16.4177269,13.2526631 19.7504544,13.2526631 Z M13.5533745,8.06199703 C16.7737186,8.06169411 19.4815219,9.87525874 20.2733551,12.3364601 C20.1125045,12.3270697 19.951351,12.3210113 19.7877741,12.3210113 C15.9670423,12.3213143 12.8584757,14.9657805 12.8590815,18.215475 C12.8590815,18.6816644 12.9254211,19.1333138 13.0456804,19.5689086 C12.4489277,19.5325585 11.8724706,19.4338076 11.3266085,19.2814403 L11.3266085,19.2814403 L8.86083848,20.3928431 L9.37489398,18.4284257 C7.6900521,17.3766976 6.60075124,15.7064128 6.60044832,13.8243889 C6.6001454,10.6419419 9.71325579,8.06229995 13.5533745,8.06199703 Z M21.8751363,15.4651696 C21.3138253,15.4651696 20.8591421,15.9198481 20.8591421,16.4814564 C20.8591421,17.0424589 21.3138253,17.4971374 21.8751363,17.4971374 C22.4367503,17.4971374 22.8911305,17.0424589 22.8911305,16.4814564 C22.8911305,15.9198481 22.4367503,15.4651696 21.8751363,15.4651696 Z M17.953835,15.4651696 C17.3925239,15.4651696 16.9378408,15.9198481 16.9378408,16.4814564 C16.9378408,17.0424589 17.3925239,17.4971374 17.953835,17.4971374 C18.515146,17.4971374 18.9698292,17.0424589 18.9698292,16.4814564 C18.9698292,15.9198481 18.515146,15.4651696 17.953835,15.4651696 Z M11.2317945,10.9060856 C10.642009,10.9060856 10.1643039,11.3843917 10.1643039,11.9738684 C10.1643039,12.5636479 10.6423119,13.041954 11.2320974,13.041954 C11.821883,13.041954 12.2998909,12.5636479 12.2998909,11.9738684 C12.2998909,11.3840888 11.821883,10.9060856 11.2317945,10.9060856 Z M15.7768084,10.9057825 C15.1870229,10.9057825 14.7090149,11.3840888 14.7090149,11.9735654 C14.7090149,12.563345 15.1873258,13.0416511 15.7771114,13.0416511 C16.366291,13.0416511 16.8452078,12.5630421 16.8452078,11.9732625 C16.8452078,11.3837859 16.3659881,10.9054798 15.7768084,10.9057825 Z" id="形状结合" fill="#FEFEFE"></path>
    </g>
</svg>