<?xml version="1.0" encoding="UTF-8"?>
<svg width="32px" height="32px" viewBox="0 0 32 32" version="1.1" xmlns="http://www.w3.org/2000/svg" xmlns:xlink="http://www.w3.org/1999/xlink">
    <title>Footer/Youtube</title>
    <g id="Footer/Youtube" stroke="none" stroke-width="1" fill="none" fill-rule="evenodd">
        <path d="M16,1 C20.1445535,1 23.8901612,2.68530819 26.6061432,5.39240072 C29.3218224,8.10766994 31,11.8607741 31,16.0042398 C31,20.1392259 29.3218224,23.8923301 26.6061432,26.6072964 C23.8901612,29.314389 20.1445535,31 16,31 C11.8551436,31 8.10953593,29.314389 5.39355386,26.6072964 C2.67787471,23.8923301 1,20.1392259 1,16.0042398 C1,11.8607741 2.67787471,8.10766994 5.39355386,5.39240072 C8.10953593,2.68530819 11.8551436,1 16,1 Z M16,2.17895863 C12.1792681,2.17895863 8.72416091,3.72314308 6.22385799,6.22278977 C3.71628499,8.72213361 2.1710893,12.1848136 2.1710893,16.0042398 C2.1710893,19.8151864 3.71628499,23.2781692 6.22385799,25.7775131 C8.72416091,28.2765541 12.1792681,29.8295209 16,29.8295209 C19.8204289,29.8295209 23.2755362,28.2765541 25.7758391,25.7775131 C28.283715,23.2781692 29.8283049,19.8151864 29.8283049,16.0042398 C29.8283049,12.1848136 28.283715,8.72213361 25.7758391,6.22278977 C23.2755362,3.72314308 19.8204289,2.17895863 16,2.17895863 Z M16.0896646,10.3829203 C16.6016617,10.3841747 19.4233555,10.3975541 21.3655943,10.5402677 C21.6560948,10.5820597 22.3125227,10.5905393 22.8935236,11.2213563 C23.3506301,11.7031758 23.5081486,12.8073328 23.5081486,12.8073328 C23.5081486,12.8073328 23.6574882,14.1025822 23.6574882,15.3814783 L23.6574882,15.3814783 L23.6574882,16.6019261 C23.6574882,17.8971755 23.5081486,19.1760716 23.5081486,19.1760716 C23.5081486,19.1760716 23.3506301,20.2805314 22.8935236,20.7702247 C22.3125227,21.4095213 21.6560948,21.4095213 21.3655943,21.4510105 C19.3563818,21.5912636 16.4060164,21.6146686 16.0450692,21.6170464 L15.9962326,21.6171391 C15.7541212,21.6145066 11.9823398,21.571756 10.8009512,21.4510105 C10.4519872,21.3846884 9.68771962,21.4095213 9.10641585,20.7702247 C8.64930934,20.2805314 8.49209378,19.1760716 8.49209378,19.1760716 C8.49209378,19.1760716 8.33366655,17.8971755 8.33366655,16.6019261 L8.33366655,16.6019261 L8.33366655,15.3814783 C8.33366655,14.1025822 8.49209378,12.8073328 8.49209378,12.8073328 C8.49209378,12.8073328 8.64930934,11.7031758 9.10641585,11.2213563 C9.68771962,10.5905393 10.3353629,10.5820597 10.642221,10.5402677 C12.5847343,10.3975541 15.3994879,10.3841747 15.9101813,10.3829203 Z M14.413274,13.5795764 L14.413274,18.063435 L18.5581304,15.8299853 L16.2907731,14.6010579 L14.413274,13.5795764 Z" id="形状结合" fill="#FEFEFE"></path>
    </g>
</svg>