<?xml version="1.0" encoding="UTF-8"?>
<svg width="22px" height="22px" viewBox="0 0 22 22" version="1.1" xmlns="http://www.w3.org/2000/svg" xmlns:xlink="http://www.w3.org/1999/xlink">
    <title>icon/department4</title>
    <g id="icon/department4" stroke="none" stroke-width="1" fill="none" fill-rule="evenodd">
        <path d="M10.1363636,10.7727273 C12.0363636,10.7727273 13.5909091,12.3272727 13.5909091,14.2272727 L13.5909091,18.5454546 C13.5909091,19.4954546 12.8136364,20.2727273 11.8636364,20.2727273 L3.22727272,20.2727273 C2.27727273,20.2727273 1.5,19.4954546 1.5,18.5454546 L1.5,14.2272727 C1.5,12.3272727 3.05454546,10.7727273 4.95454544,10.7727273 L10.1363636,10.7727273 Z M14.8863636,12.5 L17.0454546,12.5 C18.9454546,12.5 20.5,14.0545455 20.5,15.9545455 L20.5,18.5454546 C20.5,19.4954546 19.7227273,20.2727273 18.7727273,20.2727273 L15.3181818,20.2727273 L15.3181818,14.2272727 C15.3181818,13.6227273 15.1454545,13.0181818 14.8863636,12.5 L14.8863636,12.5 Z M15.4909091,6.45454546 C16.9590909,6.45454546 18.0818182,7.57727274 18.0818182,9.04545456 C18.0818182,10.5136364 16.9590909,11.6363636 15.4909091,11.6363636 C14.0227273,11.6363636 12.9,10.5136364 12.9,9.04545456 C12.9,7.57727274 14.1090909,6.45454546 15.4909091,6.45454546 Z M7.54545454,3 C9.44545454,3 11,4.55454546 11,6.45454546 C11,8.35454547 9.44545454,9.90909093 7.54545454,9.90909093 C5.64545453,9.90909093 4.09090909,8.35454547 4.09090909,6.45454546 C4.09090909,4.55454546 5.64545455,3 7.54545454,3 Z" id="形状" fill="#9F1E54" fill-rule="nonzero"></path>
    </g>
</svg>